<?xml version="1.0" encoding="iso-8859-1"?>
<!-- Generator: Adobe Illustrator 16.0.0, SVG Export Plug-In . SVG Version: 6.00 Build 0)  -->
<!DOCTYPE svg PUBLIC "-//W3C//DTD SVG 1.1//EN" "http://www.w3.org/Graphics/SVG/1.1/DTD/svg11.dtd">
<svg version="1.1" xmlns="http://www.w3.org/2000/svg" xmlns:xlink="http://www.w3.org/1999/xlink" x="0px" y="0px"
	 width="769.461px" height="566.972px" viewBox="0 0 769.461 566.972" style="enable-background:new 0 0 769.461 566.972;"
	 xml:space="preserve">
<g id="Layer_1">
	<rect x="-13.997" y="1738.413" width="794.96" height="589.045"/>
	<polygon style="fill-rule:evenodd;clip-rule:evenodd;fill:#969696;" points="372.694,2718.189 337.397,2718.189 328.226,2733.199 
		346.659,2763.224 	"/>
	<polygon style="fill-rule:evenodd;clip-rule:evenodd;fill:#A8A8A8;" points="419.755,2718.189 385.31,2718.189 352.726,2772.877 
		369.186,2799.706 	"/>
	<polygon style="fill-rule:evenodd;clip-rule:evenodd;fill:#505050;" points="467.435,2718.131 432.558,2718.189 376.042,2810.798 
		392.63,2838.105 	"/>
	<polygon style="fill-rule:evenodd;clip-rule:evenodd;fill:#A7A9AC;" points="372.384,379.631 337.087,379.631 326.979,396.174 
		345.292,426.104 	"/>
	<polygon style="fill-rule:evenodd;clip-rule:evenodd;fill:#FAA61A;" points="419.446,379.631 385,379.631 351.559,435.756 
		367.965,462.617 	"/>
	<polygon style="fill-rule:evenodd;clip-rule:evenodd;fill:#C6191F;" points="467.555,379.631 432.249,379.631 374.819,473.637 
		392.702,502.281 	"/>
	<path style="fill:#49307B;" d="M265.848,494.826c0,15.254-5.671,27.199-17.021,35.826c-11.354,8.631-28.934,12.939-52.767,12.939
		c-25.556,0-43.929-4.615-55.11-13.855c-11.172-9.232-16.765-22.949-16.765-41.139V379.572h44.189v113.436
		c0,8.801,2.409,15.408,7.214,19.812c4.813,4.404,13.15,6.605,25.023,6.605c11,0,19.167-1.967,24.5-5.908
		c5.325-3.934,7.992-10.99,7.992-21.16V379.572h32.745V494.826z"/>
	<path style="fill:#49307B;" d="M496.569,544.186h-40.424v-94.469l-60.173,94.469h-22.873l-56.281-94.469v94.469h-30.537V379.572
		h32.779l73.655,119.975l74.805-119.975h29.049V544.186z"/>
	<path style="fill:#49307B;" d="M648.566,404.117h-42.634v140.068h-44.188V404.117h-43.67v-24.545h130.492V404.117z"/>
	<g>
		<polygon style="fill:#49307B;" points="389.93,18.862 124.186,265.584 650.281,265.584 		"/>
		<path style="fill:#FFFFFF;" d="M414.802,227.953c0,0-42.964,25.68-66.041,5.887c0,0,14.343-1.949,18.023-6.521
			c0,0,6.399-5.416-1.747-4.771c0,0-10.057,3.676-11.41-5.234c0,0-2.143-7.816,8.504-4.578c0,0,8.123,5.668,8.712-1.957
			c0,0,0.776-9.369-5.999-12.838c0,0-13.742-4.992-18.991,6.746c0,0-0.943,3.266,0.962,7.385c0,0,3.324,13.934-2.927,18.949
			c0,0-5.188,7.596-12.562,3.701c0,0-6.399-3.701,3.716-10.211c0,0,8.847-3.934,5.967-9.82c0,0-2.685-3.682-9.861,2.822
			c0,0-9.271,5.686-16.652,2.391c0,0-5.999-3.695-6.224-7.387c0,0-1.744-5.221,9.503-1.508c0,0,8.745,3.682,13.374-2.627l8.555-9.35
			c0,0,2.914-5.023-2.747-2.826c0,0-6.407,6.293-10.834,5.879c0,0-7.936,1.523-4.07-8.076c0,0,3.282-6.285,14.13-5.865l25.951-1.525
			c0,0-1.157-11.496-5.812-13.258c0,0-4.436-4.145-14.938,5.633c0,0-6.965,8.299-21.645,10.67c0,0-12.254,4.17-13.771,1.33
			c0,0-2.304-4.133,7.755-5.672c0,0,7.371-1.941,8.155-3.486c0,0,3.87-1.969-0.978-2.842c0,0-5.653,2.199-12.402-6.52
			c0,0-6.964-8.291,2.866-5.654c0,0,10.089,3.508,11.472,4.785c0,0,6.753,2.822,11.214,0c0,0,4.063-1.094-1.935-2.619
			c0,0-5.994,0.23-12.378-9.56c0,0-6.992-10.233-5.241-13.272c0,0,1.566-8.498,8.9,0c0,0,5.804,5.885,9.117,14.145
			c0,0,4.07,5.668,15.873,5.871c0,0,8.343-1.525,2.528-4.135c0,0-12.995-8.9-16.115-24.582c0,0-3.067-12.883,5.432-5.418
			c0,0,4.467,4.334,3.499,11.311c0,0,1.564,3.693,10.653,6.725c0,0,6.999,0.43,6.03,10.443c0,0-0.595,7.602,5.598,10.686
			c0,0,4.648,2.584,8.115-7.863c0,0,5.021-9.795-1.164-16.099c0,0-3.679-6.065-10.612-10.435c0,0-6.578-5.646-8.938-7.207
			c-2.31-1.498-2.31-2.18-7.742-2.79c0,0-6.405-2.235,0.184-7.601c0,0,5.632-5.047,12.029,1.717c0,0,8.902,9.381,10.431,9.562
			c0,0,4.288,2.383,6.408,1.551c0,0-2.337-4.619,8.341-13.312l9.094-15.65c0,0,8.518,1.531,3.278,11.977
			c0,0-3.845,5.873-6.778,7.394c0,0,5.241,0,8.153-1.954c0,0,15.119-5.234,7.371,7.387c0,0-1.778,3.485-12.212,3.029
			c0,0-4.853-0.865-10.438,8.703c0,0-1.19,3.93,3.248,6.547c0,0,2.933-9.352,16.863-5.221c0,0,12.379,4.156,16.879-1.954
			c0,0,6.37-4.354,3.091,5.233c0,0-5.255,10.654-19.782,4.98c0,0-7.932-6.289-13.935,3.453c0,0,0.762,12.236-4.453,16.115
			c0,0-6.593,7.42-7.941,12.631c0,0-1.756,7.855,1.753,13.701c0,0,3.655,7.189,6.369-4.555c0,0-1.344-21.777,9.497-25.895
			c0,0,10.656-5.218,19.183-5.218c0,0,7.556,0,12.77-14.337c0,0-0.959-9.176,4.471-11.521c0,0,12.747-1.768,3.463,11.297
			c0,0-4.991,6.938-6.377,10.436c0,0-2.516,6.967,5.04,2.83c0,0,6.769-4.142,7.936-9.797c0,0,4.243-12.184,18.369-5.201
			c0,0,6.396,3.258,8.739,9.322c0,0,2.682,7.406-6.214,3.914l-6.374-5.438c0,0-3.843-3.034-7.334,4.168
			c0,0-3.68,12.132-19.365,15.413c0,0-16.087,0.225-19.964-0.641c0,0-16.851,3.27-16.062,19.793l13.721,5.43
			c0,0,3.486,0.457,4.833,2.848c0,0,3.1,3.066,7.789-4.797c0,0,6.555-17.82,26.104-16.727c0,0,9.7-0.654,16.085,3.699
			c0,0,5.633,2.791,5.633-3.27c0,0-1.196-6.111,0.745-8.271c0,0,4.466-7.855,7.752,3.238c0,0,3.49,11.984-3.657,15.479
			c0,0-4.84,4.744-21.113,0.432c0,0-18.411-5.664-24.4,9.109c0,0-5.63,13.521,5.61,9.381c0,0,12.381-6.303,19.37-9.785
			c0,0,8.31-5.219,16.257,3.938c0,0,4.487,3.668,1.747,8.016c0,0-4.066,3.498-6.563-3.49c0,0-3.901-6.289-7.765-1.936
			c0,0-2.88,3.932,3.299,8.924l8.899,11.08c0,0,3.648,9.166-5.813,5.232c0,0-15.079-13.502-15.676-14.561
			c0,0-5.438-6.115-11.629,1.502c0,0-2.706,7.195-13.366,0.441c0,0-9.308-6.779-13.958-10.889c0,0-11.021-6.746-20.896,2.83
			c0,0-8.534,9.797,1.149,19.16C385.556,226.676,386.707,229.721,414.802,227.953z"/>
		<path style="fill:#C6191F;" d="M21.262,284.438c0,0,178.724,27.295,399.248-13.662c220.566-40.986,237.729-102.947,130.263-132.36
			c0,0,229.164,36.778,16.181,115.562C566.954,253.977,282.389,345.727,21.262,284.438z"/>
		<g>
			<path style="fill:#49307B;" d="M146.178,339.615c0,2.672-0.903,4.762-2.714,6.266c-1.836,1.537-4.624,2.281-8.43,2.281
				c-4.094,0-7.03-0.811-8.816-2.436c-1.773-1.627-2.677-4.012-2.677-7.203V319.42h7.052v19.85c0,1.549,0.403,2.695,1.159,3.475
				c0.774,0.773,2.127,1.146,3.992,1.146c1.787,0,3.097-0.338,3.942-1.016c0.846-0.695,1.287-1.928,1.287-3.711V319.42h5.205
				V339.615z"/>
			<path style="fill:#49307B;" d="M166.984,347.84h-2.08l-10.907-12.412v12.412h-3.503v-19.75h2.629l10.401,11.65v-11.65h3.459
				V347.84z"/>
			<path style="fill:#49307B;" d="M176.703,347.84h-4.909v-19.75h4.909V347.84z"/>
			<path style="fill:#49307B;" d="M197.977,328.09l-7.339,19.75h-4.153l-7.152-19.75h5.298l4.668,13.652l4.673-13.652H197.977z"/>
			<path style="fill:#49307B;" d="M213.625,347.84h-13.848v-19.75h13.252v2.918h-8.337v5.316h6.504v2.963h-6.504v5.623h8.933V347.84
				z"/>
			<path style="fill:#49307B;" d="M231.53,347.84h-4.855c-0.018-3.195-0.369-5.465-0.989-6.83c-0.625-1.363-1.622-2.051-2.999-2.051
				h-1.149v8.881h-4.907v-19.75h8.59c2.083,0,3.553,0.406,4.434,1.242c0.876,0.82,1.31,1.824,1.31,3.008v1.078
				c0,1.127-0.379,2.025-1.163,2.701c-0.748,0.686-1.899,1.1-3.394,1.227c1.686,0.43,2.963,1.477,3.84,3.051
				C231.086,342.01,231.53,344.465,231.53,347.84z M226.125,333.791v-0.535c0-0.857-0.257-1.479-0.749-1.838
				c-0.498-0.373-1.253-0.547-2.227-0.547h-1.613v5.248h1.341c1.146,0,2.001-0.203,2.499-0.578
				C225.868,335.154,226.125,334.574,226.125,333.791z"/>
			<path style="fill:#49307B;" d="M248.362,341.965c0,2.115-0.784,3.654-2.319,4.654c-1.533,0.992-3.669,1.49-6.43,1.49
				c-1.562,0-2.896-0.066-3.964-0.254c-1.094-0.158-1.971-0.361-2.684-0.637v-3.393c0.561,0.311,1.431,0.594,2.594,0.842
				c1.185,0.256,2.346,0.406,3.465,0.406c1.593,0,2.687-0.201,3.274-0.584c0.594-0.391,0.909-1.031,0.909-1.92
				c0-0.561-0.217-1.086-0.655-1.535c-0.438-0.434-1.659-1.023-3.692-1.779c-1.623-0.588-2.871-1.318-3.739-2.246
				c-0.902-0.93-1.357-2.189-1.357-3.756c0-1.537,0.73-2.816,2.167-3.863c1.433-1.041,3.397-1.586,5.938-1.586
				c1.208,0,2.307,0.1,3.312,0.285c0.96,0.172,1.65,0.342,2.061,0.486v2.977c-0.84-0.197-1.683-0.344-2.501-0.488
				c-0.81-0.127-1.695-0.193-2.626-0.193c-1.282,0-2.241,0.174-2.807,0.547c-0.597,0.377-0.877,0.822-0.877,1.393
				c0,0.684,0.217,1.225,0.66,1.584c0.443,0.348,1.718,0.883,3.803,1.562c1.969,0.654,3.384,1.465,4.195,2.467
				C247.927,339.43,248.362,340.602,248.362,341.965z"/>
			<path style="fill:#49307B;" d="M257.11,347.84h-4.906v-19.75h4.906V347.84z"/>
			<path style="fill:#49307B;" d="M274.73,331.008h-4.72v16.832h-4.904v-16.832h-4.878v-2.918h14.503V331.008z"/>
			<path style="fill:#49307B;" d="M282.725,347.84h-4.904v-19.75h4.904V347.84z"/>
			<path style="fill:#49307B;" d="M329.324,347.84h-6.393v-16.305l-9.683,16.305h-3.629l-9.025-16.305v16.305h-4.867v-28.42h5.244
				l11.799,20.732l11.997-20.732h4.557V347.84z"/>
			<path style="fill:#49307B;" d="M351.697,347.84h-5.034l-1.587-4.748h-7.252l-1.644,4.748h-3.983l7.35-19.75h4.591L351.697,347.84
				z M344.017,340.244l-2.686-7.268l-2.564,7.268H344.017z"/>
			<path style="fill:#49307B;" d="M366.875,347.84h-12.99v-19.75h4.902v16.82h8.088V347.84z"/>
			<path style="fill:#49307B;" d="M387.557,347.84h-5.026l-1.594-4.748h-7.247l-1.656,4.748h-3.973l7.348-19.75h4.587
				L387.557,347.84z M379.902,340.244l-2.707-7.268l-2.531,7.268H379.902z"/>
			<path style="fill:#49307B;" d="M406.954,328.09l-7.216,11.393v8.357h-4.872v-7.924l-7.407-11.826h5.723l4.81,7.916l5.092-7.916
				H406.954z"/>
			<path style="fill:#49307B;" d="M422.54,341.965c0,2.115-0.75,3.654-2.279,4.654c-1.557,0.992-3.689,1.49-6.423,1.49
				c-1.563,0-2.918-0.066-3.975-0.254c-1.091-0.158-1.962-0.361-2.681-0.609v-3.42c0.557,0.311,1.424,0.594,2.591,0.842
				c1.182,0.256,2.306,0.406,3.465,0.406c1.59,0,2.689-0.201,3.284-0.584c0.588-0.391,0.9-1.031,0.9-1.92
				c0-0.561-0.219-1.078-0.656-1.535c-0.435-0.434-1.65-1.023-3.714-1.779c-1.597-0.588-2.846-1.318-3.716-2.246
				c-0.915-0.93-1.35-2.189-1.35-3.756c0-1.537,0.72-2.816,2.159-3.863c1.423-1.041,3.403-1.586,5.938-1.586
				c1.216,0,2.305,0.1,3.312,0.285c0.956,0.172,1.655,0.342,2.053,0.486v2.977c-0.845-0.197-1.654-0.344-2.503-0.488
				c-0.812-0.127-1.646-0.193-2.59-0.193c-1.316,0-2.272,0.174-2.839,0.547c-0.598,0.377-0.877,0.822-0.877,1.393
				c0,0.684,0.211,1.225,0.659,1.584c0.435,0.348,1.677,0.883,3.811,1.578c1.969,0.639,3.376,1.449,4.181,2.451
				C422.134,339.43,422.54,340.602,422.54,341.965z"/>
			<path style="fill:#49307B;" d="M431.326,347.84h-4.908v-19.75h4.908V347.84z"/>
			<path style="fill:#49307B;" d="M453.848,347.84h-5.033l-1.586-4.748h-7.253l-1.657,4.748h-3.996l7.369-19.75h4.562
				L453.848,347.84z M446.16,340.244l-2.683-7.268l-2.563,7.268H446.16z"/>
			<path style="fill:#49307B;" d="M482.36,323.686h-6.803v24.154h-7.062v-24.154h-6.998v-4.266h20.862V323.686z"/>
			<path style="fill:#49307B;" d="M498.515,347.84h-13.829v-19.75h13.24v2.918h-8.342v5.316h6.485v2.963h-6.485v5.623h8.931V347.84z
				"/>
			<path style="fill:#49307B;" d="M516.438,347.84h-4.87c-0.056-3.195-0.376-5.455-0.996-6.83c-0.627-1.363-1.625-2.051-2.999-2.051
				h-1.146v8.881h-4.876v-19.75h8.548c2.103,0,3.598,0.406,4.436,1.242c0.89,0.82,1.323,1.824,1.323,3.008v1.078
				c0,1.127-0.379,2.023-1.129,2.701c-0.78,0.686-1.937,1.1-3.462,1.227c1.748,0.43,3.027,1.477,3.868,3.051
				C515.979,342.01,516.438,344.465,516.438,347.84z M511.015,333.791v-0.535c0-0.857-0.257-1.479-0.758-1.838
				c-0.528-0.373-1.252-0.547-2.205-0.547h-1.626v5.248h1.335c1.159,0,1.968-0.203,2.496-0.578
				C510.758,335.154,511.015,334.574,511.015,333.791z"/>
			<path style="fill:#49307B;" d="M533.44,347.84h-13.837v-19.75h13.241v2.918h-8.334v5.316h6.488v2.963h-6.488v5.623h8.93V347.84z"
				/>
			<path style="fill:#49307B;" d="M552.644,347.84h-2.086l-10.902-12.412v12.412h-3.464v-19.75h2.588l10.398,11.65v-11.65h3.466
				V347.84z"/>
			<path style="fill:#49307B;" d="M572.917,344.873c-0.685,0.959-1.685,1.727-2.96,2.346c-1.285,0.637-2.967,0.943-5.064,0.943
				c-2.835,0-5.082-0.828-6.738-2.486c-1.641-1.658-2.471-4.066-2.471-7.225v-1.082c0-2.811,0.931-5.105,2.721-6.875
				c1.829-1.791,4.372-2.689,7.642-2.689c1.192,0,2.264,0.113,3.102,0.316c0.81,0.229,1.427,0.402,1.841,0.609v3.168
				c-0.504-0.191-1.125-0.432-1.906-0.662c-0.747-0.254-1.631-0.365-2.6-0.365c-1.777,0-3.182,0.533-4.25,1.623
				c-1.056,1.076-1.595,2.889-1.595,5.404v0.285c0,2.627,0.42,4.436,1.226,5.449c0.811,1.012,1.971,1.512,3.438,1.512
				c0.813,0,1.524-0.125,2.188-0.352c0.66-0.271,1.095-0.555,1.276-0.859v-4.031h-3.308v-2.656h7.458V344.873z"/>
			<path style="fill:#49307B;" d="M592.542,344.873c-0.693,0.959-1.657,1.727-2.932,2.346c-1.319,0.637-3.001,0.943-5.066,0.943
				c-2.842,0-5.116-0.828-6.746-2.486c-1.658-1.658-2.473-4.066-2.473-7.225v-1.082c0-2.811,0.906-5.105,2.726-6.875
				c1.806-1.791,4.363-2.689,7.613-2.689c1.217,0,2.277,0.113,3.13,0.316c0.816,0.229,1.439,0.402,1.841,0.609v3.168
				c-0.537-0.191-1.127-0.432-1.908-0.662c-0.744-0.254-1.623-0.365-2.62-0.365c-1.751,0-3.15,0.533-4.242,1.623
				c-1.069,1.076-1.594,2.889-1.594,5.404v0.285c0,2.627,0.4,4.436,1.244,5.449c0.81,1.012,1.962,1.512,3.444,1.512
				c0.772,0,1.491-0.125,2.183-0.352c0.621-0.271,1.059-0.555,1.275-0.859v-4.031h-3.34v-2.656h7.465V344.873z"/>
			<path style="fill:#49307B;" d="M613.311,347.84h-5.03l-1.58-4.748h-7.254l-1.66,4.748h-3.964l7.334-19.75h4.608L613.311,347.84z
				 M605.663,340.244l-2.714-7.268l-2.57,7.268H605.663z"/>
			<path style="fill:#49307B;" d="M631.716,347.84h-2.095l-10.904-12.412v12.412h-3.505v-19.75h2.631l10.392,11.65v-11.65h3.481
				V347.84z"/>
			<path style="fill:#49307B;" d="M651.3,342.139c0,1.855-0.653,3.301-1.903,4.359c-1.288,1.057-3.222,1.574-5.87,1.574
				c-2.884,0-4.909-0.551-6.152-1.676c-1.233-1.127-1.855-2.814-1.855-5.025V328.09h4.913v13.842c0,1.082,0.246,1.879,0.784,2.408
				c0.521,0.539,1.461,0.805,2.769,0.805c1.257,0,2.158-0.234,2.766-0.709c0.576-0.488,0.893-1.348,0.893-2.584V328.09h3.657
				V342.139z"/>
		</g>
		<path style="fill:#C6191F;" d="M110.485,179.086"/>
		<path style="fill:#A7A9AC;" d="M175.182,218.244c-54.188-15.547-124.654-50.26,25.95-105.977c0,0,284.568-91.726,545.696-30.458
			c0,0-178.72-27.299-399.253,13.638C157.63,130.778,118.54,181.617,179.925,213.84"/>
		<path style="fill:#FAA61A;" d="M584.205,66.377c0,10.853-8.796,19.655-19.655,19.655c-10.834,0-19.634-8.803-19.634-19.655
			c0-10.855,8.8-19.647,19.634-19.647C575.409,46.729,584.205,55.521,584.205,66.377"/>
	</g>
	<polygon style="fill-rule:evenodd;clip-rule:evenodd;fill:none;stroke:#000000;stroke-miterlimit:10;" points="372.779,964.602 
		337.482,964.602 328.311,979.611 346.744,1009.636 	"/>
	<polygon style="fill-rule:evenodd;clip-rule:evenodd;fill:none;stroke:#000000;stroke-miterlimit:10;" points="419.84,964.602 
		385.395,964.602 352.811,1019.289 369.271,1046.118 	"/>
	<polygon style="fill-rule:evenodd;clip-rule:evenodd;fill:none;stroke:#000000;stroke-miterlimit:10;" points="467.52,964.543 
		432.643,964.602 376.126,1057.21 392.715,1084.518 	"/>
	<path style="fill:none;stroke:#000000;stroke-miterlimit:10;" d="M265.848,1079.797c0,15.254-5.671,27.199-17.021,35.826
		c-11.354,8.631-28.934,12.939-52.767,12.939c-25.556,0-43.929-4.615-55.11-13.855c-11.172-9.232-16.765-22.949-16.765-41.139
		V964.543h44.189v113.436c0,8.801,2.409,15.408,7.214,19.812c4.813,4.404,13.15,6.605,25.023,6.605c11,0,19.167-1.967,24.5-5.908
		c5.325-3.934,7.992-10.99,7.992-21.16V964.543h32.745V1079.797z"/>
	<path style="fill:none;stroke:#000000;stroke-miterlimit:10;" d="M496.569,1129.156h-40.424v-94.469l-60.173,94.469h-22.873
		l-56.281-94.469v94.469h-30.537V964.543h32.779l73.655,119.975l74.805-119.975h29.049V1129.156z"/>
	<path style="fill:none;stroke:#000000;stroke-miterlimit:10;" d="M648.566,989.088h-42.634v140.068h-44.188V989.088h-43.67v-24.545
		h130.492V989.088z"/>
	<path style="fill:#2C2C2C;" d="M265.848,2833.385c0,15.254-5.671,27.199-17.021,35.826c-11.354,8.631-28.934,12.939-52.767,12.939
		c-25.556,0-43.929-4.615-55.11-13.855c-11.172-9.232-16.765-22.949-16.765-41.139v-109.025h44.189v113.436
		c0,8.801,2.409,15.408,7.214,19.812c4.813,4.404,13.15,6.605,25.023,6.605c11,0,19.167-1.967,24.5-5.908
		c5.325-3.934,7.992-10.99,7.992-21.16v-112.785h32.745V2833.385z"/>
	<path style="fill:#2C2C2C;" d="M496.569,2882.744h-40.424v-94.469l-60.173,94.469h-22.873l-56.281-94.469v94.469h-30.537v-164.613
		h32.779l73.655,119.975l74.805-119.975h29.049V2882.744z"/>
	<path style="fill:#2C2C2C;" d="M648.566,2742.676h-42.634v140.068h-44.188v-140.068h-43.67v-24.545h130.492V2742.676z"/>
	<polygon style="fill:#2C2C2C;" points="389.93,2357.42 124.186,2604.143 650.281,2604.143 	"/>
	<path style="fill:#FFFFFF;" d="M414.802,2566.512c0,0-42.964,25.68-66.041,5.887c0,0,14.343-1.949,18.023-6.521
		c0,0,6.399-5.416-1.747-4.771c0,0-10.057,3.676-11.41-5.234c0,0-2.143-7.816,8.504-4.578c0,0,8.123,5.668,8.712-1.957
		c0,0,0.776-9.369-5.999-12.838c0,0-13.742-4.992-18.991,6.746c0,0-0.943,3.266,0.962,7.385c0,0,3.324,13.934-2.927,18.949
		c0,0-5.188,7.596-12.562,3.701c0,0-6.399-3.701,3.716-10.211c0,0,8.847-3.934,5.967-9.82c0,0-2.685-3.682-9.861,2.822
		c0,0-9.271,5.686-16.652,2.391c0,0-5.999-3.695-6.224-7.387c0,0-1.744-5.221,9.503-1.508c0,0,8.745,3.682,13.374-2.627l8.555-9.35
		c0,0,2.914-5.023-2.747-2.826c0,0-6.407,6.293-10.834,5.879c0,0-7.936,1.523-4.07-8.076c0,0,3.282-6.285,14.13-5.865l25.951-1.525
		c0,0-1.157-11.496-5.812-13.258c0,0-4.436-4.145-14.938,5.633c0,0-6.965,8.299-21.645,10.67c0,0-12.254,4.17-13.771,1.33
		c0,0-2.304-4.133,7.755-5.672c0,0,7.371-1.941,8.155-3.486c0,0,3.87-1.969-0.978-2.842c0,0-5.653,2.199-12.402-6.52
		c0,0-6.964-8.291,2.866-5.654c0,0,10.089,3.508,11.472,4.785c0,0,6.753,2.822,11.214,0c0,0,4.063-1.094-1.935-2.619
		c0,0-5.994,0.23-12.378-9.561c0,0-6.992-10.232-5.241-13.271c0,0,1.566-8.498,8.9,0c0,0,5.804,5.885,9.117,14.145
		c0,0,4.07,5.668,15.873,5.871c0,0,8.343-1.525,2.528-4.135c0,0-12.995-8.9-16.115-24.582c0,0-3.067-12.883,5.432-5.418
		c0,0,4.467,4.334,3.499,11.311c0,0,1.564,3.693,10.653,6.725c0,0,6.999,0.43,6.03,10.443c0,0-0.595,7.602,5.598,10.686
		c0,0,4.648,2.584,8.115-7.863c0,0,5.021-9.795-1.164-16.1c0,0-3.679-6.064-10.612-10.434c0,0-6.578-5.646-8.938-7.207
		c-2.31-1.498-2.31-2.18-7.742-2.791c0,0-6.405-2.234,0.184-7.6c0,0,5.632-5.047,12.029,1.717c0,0,8.902,9.381,10.431,9.562
		c0,0,4.288,2.383,6.408,1.551c0,0-2.337-4.619,8.341-13.312l9.094-15.65c0,0,8.518,1.531,3.278,11.977c0,0-3.845,5.873-6.778,7.393
		c0,0,5.241,0,8.153-1.953c0,0,15.119-5.234,7.371,7.387c0,0-1.778,3.484-12.212,3.029c0,0-4.853-0.865-10.438,8.703
		c0,0-1.19,3.93,3.248,6.547c0,0,2.933-9.352,16.863-5.221c0,0,12.379,4.156,16.879-1.955c0,0,6.37-4.354,3.091,5.234
		c0,0-5.255,10.654-19.782,4.98c0,0-7.932-6.289-13.935,3.453c0,0,0.762,12.236-4.453,16.115c0,0-6.593,7.42-7.941,12.631
		c0,0-1.756,7.855,1.753,13.701c0,0,3.655,7.189,6.369-4.555c0,0-1.344-21.777,9.497-25.895c0,0,10.656-5.219,19.183-5.219
		c0,0,7.556,0,12.77-14.336c0,0-0.959-9.176,4.471-11.521c0,0,12.747-1.768,3.463,11.297c0,0-4.991,6.938-6.377,10.436
		c0,0-2.516,6.967,5.04,2.83c0,0,6.769-4.143,7.936-9.797c0,0,4.243-12.184,18.369-5.201c0,0,6.396,3.258,8.739,9.322
		c0,0,2.682,7.406-6.214,3.914l-6.374-5.439c0,0-3.843-3.033-7.334,4.168c0,0-3.68,12.133-19.365,15.414
		c0,0-16.087,0.225-19.964-0.641c0,0-16.851,3.27-16.062,19.793l13.721,5.43c0,0,3.486,0.457,4.833,2.848c0,0,3.1,3.066,7.789-4.797
		c0,0,6.555-17.82,26.104-16.727c0,0,9.7-0.654,16.085,3.699c0,0,5.633,2.791,5.633-3.27c0,0-1.196-6.111,0.745-8.271
		c0,0,4.466-7.855,7.752,3.238c0,0,3.49,11.984-3.657,15.479c0,0-4.84,4.744-21.113,0.432c0,0-18.411-5.664-24.4,9.109
		c0,0-5.63,13.521,5.61,9.381c0,0,12.381-6.303,19.37-9.785c0,0,8.31-5.219,16.257,3.938c0,0,4.487,3.668,1.747,8.016
		c0,0-4.066,3.498-6.563-3.49c0,0-3.901-6.289-7.765-1.936c0,0-2.88,3.932,3.299,8.924l8.899,11.08c0,0,3.648,9.166-5.813,5.232
		c0,0-15.079-13.502-15.676-14.561c0,0-5.438-6.115-11.629,1.502c0,0-2.706,7.195-13.366,0.441c0,0-9.308-6.779-13.958-10.889
		c0,0-11.021-6.746-20.896,2.83c0,0-8.534,9.797,1.149,19.16C385.556,2565.234,386.707,2568.279,414.802,2566.512z"/>
	<path style="fill:#505050;" d="M21.262,2622.996c0,0,178.724,27.295,399.248-13.662
		c220.566-40.986,237.729-102.947,130.263-132.361c0,0,229.164,36.779,16.181,115.562
		C566.954,2592.535,282.389,2684.285,21.262,2622.996z"/>
	<g>
		<path style="fill:#2C2C2C;" d="M146.178,2678.174c0,2.672-0.903,4.762-2.714,6.266c-1.836,1.537-4.624,2.281-8.43,2.281
			c-4.094,0-7.03-0.811-8.816-2.436c-1.773-1.627-2.677-4.012-2.677-7.203v-19.104h7.052v19.85c0,1.549,0.403,2.695,1.159,3.475
			c0.774,0.773,2.127,1.146,3.992,1.146c1.787,0,3.097-0.338,3.942-1.016c0.846-0.695,1.287-1.928,1.287-3.711v-19.744h5.205
			V2678.174z"/>
		<path style="fill:#2C2C2C;" d="M166.984,2686.398h-2.08l-10.907-12.412v12.412h-3.503v-19.75h2.629l10.401,11.65v-11.65h3.459
			V2686.398z"/>
		<path style="fill:#2C2C2C;" d="M176.703,2686.398h-4.909v-19.75h4.909V2686.398z"/>
		<path style="fill:#2C2C2C;" d="M197.977,2666.648l-7.339,19.75h-4.153l-7.152-19.75h5.298l4.668,13.652l4.673-13.652H197.977z"/>
		<path style="fill:#2C2C2C;" d="M213.625,2686.398h-13.848v-19.75h13.252v2.918h-8.337v5.316h6.504v2.963h-6.504v5.623h8.933
			V2686.398z"/>
		<path style="fill:#2C2C2C;" d="M231.53,2686.398h-4.855c-0.018-3.195-0.369-5.465-0.989-6.83
			c-0.625-1.363-1.622-2.051-2.999-2.051h-1.149v8.881h-4.907v-19.75h8.59c2.083,0,3.553,0.406,4.434,1.242
			c0.876,0.82,1.31,1.824,1.31,3.008v1.078c0,1.127-0.379,2.025-1.163,2.701c-0.748,0.686-1.899,1.1-3.394,1.227
			c1.686,0.43,2.963,1.477,3.84,3.051C231.086,2680.568,231.53,2683.023,231.53,2686.398z M226.125,2672.35v-0.535
			c0-0.857-0.257-1.479-0.749-1.838c-0.498-0.373-1.253-0.547-2.227-0.547h-1.613v5.248h1.341c1.146,0,2.001-0.203,2.499-0.578
			C225.868,2673.713,226.125,2673.133,226.125,2672.35z"/>
		<path style="fill:#2C2C2C;" d="M248.362,2680.523c0,2.115-0.784,3.654-2.319,4.654c-1.533,0.992-3.669,1.49-6.43,1.49
			c-1.562,0-2.896-0.066-3.964-0.254c-1.094-0.158-1.971-0.361-2.684-0.637v-3.393c0.561,0.311,1.431,0.594,2.594,0.842
			c1.185,0.256,2.346,0.406,3.465,0.406c1.593,0,2.687-0.201,3.274-0.584c0.594-0.391,0.909-1.031,0.909-1.92
			c0-0.561-0.217-1.086-0.655-1.535c-0.438-0.434-1.659-1.023-3.692-1.779c-1.623-0.588-2.871-1.318-3.739-2.246
			c-0.902-0.93-1.357-2.189-1.357-3.756c0-1.537,0.73-2.816,2.167-3.863c1.433-1.041,3.397-1.586,5.938-1.586
			c1.208,0,2.307,0.1,3.312,0.285c0.96,0.172,1.65,0.342,2.061,0.486v2.977c-0.84-0.197-1.683-0.344-2.501-0.488
			c-0.81-0.127-1.695-0.193-2.626-0.193c-1.282,0-2.241,0.174-2.807,0.547c-0.597,0.377-0.877,0.822-0.877,1.393
			c0,0.684,0.217,1.225,0.66,1.584c0.443,0.348,1.718,0.883,3.803,1.562c1.969,0.654,3.384,1.465,4.195,2.467
			C247.927,2677.988,248.362,2679.16,248.362,2680.523z"/>
		<path style="fill:#2C2C2C;" d="M257.11,2686.398h-4.906v-19.75h4.906V2686.398z"/>
		<path style="fill:#2C2C2C;" d="M274.73,2669.566h-4.72v16.832h-4.904v-16.832h-4.878v-2.918h14.503V2669.566z"/>
		<path style="fill:#2C2C2C;" d="M282.725,2686.398h-4.904v-19.75h4.904V2686.398z"/>
		<path style="fill:#2C2C2C;" d="M329.324,2686.398h-6.393v-16.305l-9.683,16.305h-3.629l-9.025-16.305v16.305h-4.867v-28.42h5.244
			l11.799,20.732l11.997-20.732h4.557V2686.398z"/>
		<path style="fill:#2C2C2C;" d="M351.697,2686.398h-5.034l-1.587-4.748h-7.252l-1.644,4.748h-3.983l7.35-19.75h4.591
			L351.697,2686.398z M344.017,2678.803l-2.686-7.268l-2.564,7.268H344.017z"/>
		<path style="fill:#2C2C2C;" d="M366.875,2686.398h-12.99v-19.75h4.902v16.82h8.088V2686.398z"/>
		<path style="fill:#2C2C2C;" d="M387.557,2686.398h-5.026l-1.594-4.748h-7.247l-1.656,4.748h-3.973l7.348-19.75h4.587
			L387.557,2686.398z M379.902,2678.803l-2.707-7.268l-2.531,7.268H379.902z"/>
		<path style="fill:#2C2C2C;" d="M406.954,2666.648l-7.216,11.393v8.357h-4.872v-7.924l-7.407-11.826h5.723l4.81,7.916l5.092-7.916
			H406.954z"/>
		<path style="fill:#2C2C2C;" d="M422.54,2680.523c0,2.115-0.75,3.654-2.279,4.654c-1.557,0.992-3.689,1.49-6.423,1.49
			c-1.563,0-2.918-0.066-3.975-0.254c-1.091-0.158-1.962-0.361-2.681-0.609v-3.42c0.557,0.311,1.424,0.594,2.591,0.842
			c1.182,0.256,2.306,0.406,3.465,0.406c1.59,0,2.689-0.201,3.284-0.584c0.588-0.391,0.9-1.031,0.9-1.92
			c0-0.561-0.219-1.078-0.656-1.535c-0.435-0.434-1.65-1.023-3.714-1.779c-1.597-0.588-2.846-1.318-3.716-2.246
			c-0.915-0.93-1.35-2.189-1.35-3.756c0-1.537,0.72-2.816,2.159-3.863c1.423-1.041,3.403-1.586,5.938-1.586
			c1.216,0,2.305,0.1,3.312,0.285c0.956,0.172,1.655,0.342,2.053,0.486v2.977c-0.845-0.197-1.654-0.344-2.503-0.488
			c-0.812-0.127-1.646-0.193-2.59-0.193c-1.316,0-2.272,0.174-2.839,0.547c-0.598,0.377-0.877,0.822-0.877,1.393
			c0,0.684,0.211,1.225,0.659,1.584c0.435,0.348,1.677,0.883,3.811,1.578c1.969,0.639,3.376,1.449,4.181,2.451
			C422.134,2677.988,422.54,2679.16,422.54,2680.523z"/>
		<path style="fill:#2C2C2C;" d="M431.326,2686.398h-4.908v-19.75h4.908V2686.398z"/>
		<path style="fill:#2C2C2C;" d="M453.848,2686.398h-5.033l-1.586-4.748h-7.253l-1.657,4.748h-3.996l7.369-19.75h4.562
			L453.848,2686.398z M446.16,2678.803l-2.683-7.268l-2.563,7.268H446.16z"/>
		<path style="fill:#2C2C2C;" d="M482.36,2662.244h-6.803v24.154h-7.062v-24.154h-6.998v-4.266h20.862V2662.244z"/>
		<path style="fill:#2C2C2C;" d="M498.515,2686.398h-13.829v-19.75h13.24v2.918h-8.342v5.316h6.485v2.963h-6.485v5.623h8.931
			V2686.398z"/>
		<path style="fill:#2C2C2C;" d="M516.438,2686.398h-4.87c-0.056-3.195-0.376-5.455-0.996-6.83
			c-0.627-1.363-1.625-2.051-2.999-2.051h-1.146v8.881h-4.876v-19.75h8.548c2.103,0,3.598,0.406,4.436,1.242
			c0.89,0.82,1.323,1.824,1.323,3.008v1.078c0,1.127-0.379,2.023-1.129,2.701c-0.78,0.686-1.937,1.1-3.462,1.227
			c1.748,0.43,3.027,1.477,3.868,3.051C515.979,2680.568,516.438,2683.023,516.438,2686.398z M511.015,2672.35v-0.535
			c0-0.857-0.257-1.479-0.758-1.838c-0.528-0.373-1.252-0.547-2.205-0.547h-1.626v5.248h1.335c1.159,0,1.968-0.203,2.496-0.578
			C510.758,2673.713,511.015,2673.133,511.015,2672.35z"/>
		<path style="fill:#2C2C2C;" d="M533.44,2686.398h-13.837v-19.75h13.241v2.918h-8.334v5.316h6.488v2.963h-6.488v5.623h8.93
			V2686.398z"/>
		<path style="fill:#2C2C2C;" d="M552.644,2686.398h-2.086l-10.902-12.412v12.412h-3.464v-19.75h2.588l10.398,11.65v-11.65h3.466
			V2686.398z"/>
		<path style="fill:#2C2C2C;" d="M572.917,2683.432c-0.685,0.959-1.685,1.727-2.96,2.346c-1.285,0.637-2.967,0.943-5.064,0.943
			c-2.835,0-5.082-0.828-6.738-2.486c-1.641-1.658-2.471-4.066-2.471-7.225v-1.082c0-2.811,0.931-5.105,2.721-6.875
			c1.829-1.791,4.372-2.689,7.642-2.689c1.192,0,2.264,0.113,3.102,0.316c0.81,0.229,1.427,0.402,1.841,0.609v3.168
			c-0.504-0.191-1.125-0.432-1.906-0.662c-0.747-0.254-1.631-0.365-2.6-0.365c-1.777,0-3.182,0.533-4.25,1.623
			c-1.056,1.076-1.595,2.889-1.595,5.404v0.285c0,2.627,0.42,4.436,1.226,5.449c0.811,1.012,1.971,1.512,3.438,1.512
			c0.813,0,1.524-0.125,2.188-0.352c0.66-0.271,1.095-0.555,1.276-0.859v-4.031h-3.308v-2.656h7.458V2683.432z"/>
		<path style="fill:#2C2C2C;" d="M592.542,2683.432c-0.693,0.959-1.657,1.727-2.932,2.346c-1.319,0.637-3.001,0.943-5.066,0.943
			c-2.842,0-5.116-0.828-6.746-2.486c-1.658-1.658-2.473-4.066-2.473-7.225v-1.082c0-2.811,0.906-5.105,2.726-6.875
			c1.806-1.791,4.363-2.689,7.613-2.689c1.217,0,2.277,0.113,3.13,0.316c0.816,0.229,1.439,0.402,1.841,0.609v3.168
			c-0.537-0.191-1.127-0.432-1.908-0.662c-0.744-0.254-1.623-0.365-2.62-0.365c-1.751,0-3.15,0.533-4.242,1.623
			c-1.069,1.076-1.594,2.889-1.594,5.404v0.285c0,2.627,0.4,4.436,1.244,5.449c0.81,1.012,1.962,1.512,3.444,1.512
			c0.772,0,1.491-0.125,2.183-0.352c0.621-0.271,1.059-0.555,1.275-0.859v-4.031h-3.34v-2.656h7.465V2683.432z"/>
		<path style="fill:#2C2C2C;" d="M613.311,2686.398h-5.03l-1.58-4.748h-7.254l-1.66,4.748h-3.964l7.334-19.75h4.608
			L613.311,2686.398z M605.663,2678.803l-2.714-7.268l-2.57,7.268H605.663z"/>
		<path style="fill:#2C2C2C;" d="M631.716,2686.398h-2.095l-10.904-12.412v12.412h-3.505v-19.75h2.631l10.392,11.65v-11.65h3.481
			V2686.398z"/>
		<path style="fill:#2C2C2C;" d="M651.3,2680.697c0,1.855-0.653,3.301-1.903,4.359c-1.288,1.057-3.222,1.574-5.87,1.574
			c-2.884,0-4.909-0.551-6.152-1.676c-1.233-1.127-1.855-2.814-1.855-5.025v-13.281h4.913v13.842c0,1.082,0.246,1.879,0.784,2.408
			c0.521,0.539,1.461,0.805,2.769,0.805c1.257,0,2.158-0.234,2.766-0.709c0.576-0.488,0.893-1.348,0.893-2.584v-13.762h3.657
			V2680.697z"/>
	</g>
	<path style="fill:#C6191F;" d="M110.485,2517.645"/>
	<path style="fill:#969696;" d="M175.182,2556.803c-54.188-15.547-124.654-50.26,25.95-105.977c0,0,284.568-91.727,545.696-30.459
		c0,0-178.72-27.299-399.253,13.639c-189.945,35.33-229.035,86.17-167.649,118.393"/>
	<path style="fill:#A8A8A8;" d="M584.205,2404.936c0,10.852-8.796,19.654-19.655,19.654c-10.834,0-19.634-8.803-19.634-19.654
		c0-10.855,8.8-19.648,19.634-19.648C575.409,2385.287,584.205,2394.08,584.205,2404.936"/>
	<g>
		<path d="M598.066,1387.981c-1.991,1.493-4.124,2.978-6.396,4.453l14.034,13.3c2.551-1.223,4.979-2.426,7.284-3.613
			L598.066,1387.981z"/>
		<path d="M611.799,1411.508l19.077,18.08h-61.94c-0.187,0.068-0.365,0.139-0.551,0.207l-0.159,0.055
			c-0.197,0.063-10.007,3.203-27.383,7.896h109.734l-31.562-29.913C616.705,1409.055,614.297,1410.279,611.799,1411.508z"/>
		<path d="M498.014,1429.588c-10.367,2.804-21.351,5.524-32.935,8.157h43.952c12.499-3.014,23.207-5.804,31.85-8.157H498.014z"/>
		<g>
			<path d="M178.95,1395.694l-36.507,33.894h323.042c-12.271,2.818-25.245,5.538-38.903,8.157H122.959l47.778-44.357l11.19-10.39
				l107.215-99.54c4.674-1.145,9.455-2.274,14.35-3.389L189.026,1386.34"/>
			<path d="M443.449,1241.457c-3.374,0.318-6.727,0.647-10.052,0.988l7.188,6.81c3.315-0.371,6.635-0.729,9.958-1.076
				L443.449,1241.457z"/>
			<path d="M314.865,1269.511l12.839-11.919c-4.629,0.852-9.11,1.701-13.44,2.543l-13.44,12.479
				C305.405,1271.564,310.093,1270.532,314.865,1269.511z"/>
			<path d="M448.065,1256.343l137.696,130.49c2.302-1.46,4.457-2.923,6.462-4.391L458.07,1255.312
				C454.731,1255.646,451.396,1255.986,448.065,1256.343z"/>
			<path d="M338.367,1247.691l50.799-47.164l36.722,34.801c3.308-0.355,6.64-0.703,10-1.039l-46.411-43.982l-64.379,59.77
				C329.398,1249.281,333.822,1248.483,338.367,1247.691z"/>
		</g>
		<path d="M414.416,1400.009c0,0-43.079,25.752-66.23,5.905c0,0,14.379-1.958,18.075-6.549c0,0,6.423-5.434-1.752-4.792
			c0,0-10.087,3.697-11.438-5.249c0,0-2.159-7.832,8.525-4.587c0,0,8.141,5.687,8.737-1.958c0,0,0.784-9.399-6.012-12.879
			c0,0-13.786-5.012-19.048,6.77c0,0-0.941,3.271,0.969,7.408c0,0,3.322,13.975-2.945,19.002c0,0-5.203,7.613-12.593,3.711
			c0,0-6.423-3.711,3.728-10.244c0,0,8.865-3.948,5.983-9.854c0,0-2.693-3.693-9.901,2.836c0,0-9.304,5.703-16.698,2.398
			c0,0-6.016-3.698-6.234-7.41c0,0-1.752-5.233,9.525-1.518c0,0,8.772,3.693,13.407-2.634l8.584-9.367c0,0,2.917-5.043-2.756-2.834
			c0,0-6.421,6.309-10.873,5.887c0,0-7.955,1.537-4.073-8.096c0,0,3.29-6.299,14.162-5.877l26.037-1.531
			c0,0-1.162-11.53-5.83-13.302c0,0-4.447-4.15-14.975,5.655c0,0-6.986,8.32-21.71,10.696c0,0-12.281,4.186-13.815,1.333
			c0,0-2.32-4.135,7.77-5.685c0,0,7.394-1.944,8.176-3.494c0,0,3.887-1.974-0.971-2.851c0,0-5.67,2.209-12.438-6.547
			c0,0-6.986-8.304,2.885-5.671c0,0,10.118,3.523,11.495,4.809c0,0,6.767,2.835,11.248,0c0,0,4.075-1.098-1.942-2.633
			c0,0-6.017,0.236-12.406-9.587c0,0-7.019-10.26-5.264-13.312c0,0,1.568-8.523,8.93,0c0,0,5.827,5.904,9.146,14.191
			c0,0,4.072,5.687,15.915,5.889c0,0,8.366-1.535,2.54-4.15c0,0-13.034-8.93-16.166-24.655c0,0-3.071-12.909,5.451-5.437
			c0,0,4.479,4.355,3.51,11.343c0,0,1.566,3.71,10.683,6.75c0,0,7.018,0.438,6.045,10.479c0,0-0.596,7.61,5.607,10.716
			c0,0,4.67,2.582,8.146-7.896c0,0,5.042-9.819-1.161-16.136c0,0-3.694-6.092-10.649-10.463c0,0-6.609-5.672-8.962-7.238
			c-2.316-1.503-2.316-2.175-7.769-2.803c0,0-6.423-2.225,0.19-7.613c0,0,5.638-5.059,12.061,1.724c0,0,8.926,9.398,10.463,9.588
			c0,0,4.292,2.396,6.423,1.55c0,0-2.351-4.62,8.366-13.346l9.115-15.697c0,0,8.554,1.535,3.288,12.018c0,0-3.849,5.888-6.795,7.408
			c0,0,5.262,0,8.175-1.958c0,0,15.166-5.249,7.395,7.406c0,0-1.785,3.495-12.252,3.041c0,0-4.856-0.862-10.463,8.726
			c0,0-1.189,3.946,3.258,6.564c0,0,2.945-9.369,16.919-5.234c0,0,12.405,4.167,16.917-1.956c0,0,6.392-4.374,3.103,5.246
			c0,0-5.265,10.683-19.834,4.997c0,0-7.955-6.312-13.971,3.463c0,0,0.754,12.279-4.481,16.166c0,0-6.607,7.441-7.956,12.672
			c0,0-1.756,7.864,1.755,13.736c0,0,3.666,7.208,6.391-4.572c0,0-1.349-21.836,9.524-25.973c0,0,10.683-5.232,19.234-5.232
			c0,0,7.582,0,12.815-14.38c0,0-0.973-9.195,4.479-11.559c0,0,12.784-1.771,3.477,11.338c0,0-5.01,6.956-6.386,10.465
			c0,0-2.542,6.985,5.039,2.838c0,0,6.8-4.152,7.961-9.823c0,0,4.26-12.217,18.42-5.215c0,0,6.422,3.256,8.77,9.35
			c0,0,2.695,7.427-6.232,3.918l-6.392-5.453c0,0-3.854-3.039-7.361,4.183c0,0-3.698,12.172-19.426,15.461
			c0,0-16.132,0.22-20.018-0.642c0,0-16.888,3.274-16.105,19.845l13.756,5.452c0,0,3.509,0.457,4.854,2.852
			c0,0,3.104,3.072,7.804-4.808c0,0,6.579-17.888,26.191-16.777c0,0,9.715-0.657,16.137,3.712c0,0,5.637,2.787,5.637-3.289
			c0,0-1.191-6.125,0.751-8.287c0,0,4.48-7.879,7.771,3.244c0,0,3.508,12.015-3.668,15.525c0,0-4.854,4.758-21.178,0.436
			c0,0-18.451-5.684-24.467,9.133c0,0-5.641,13.565,5.636,9.398c0,0,12.408-6.313,19.427-9.806c0,0,8.334-5.231,16.291,3.948
			c0,0,4.513,3.682,1.757,8.035c0,0-4.074,3.509-6.58-3.494c0,0-3.918-6.311-7.798-1.938c0,0-2.885,3.944,3.317,8.941l8.929,11.123
			c0,0,3.664,9.18-5.824,5.246c0,0-15.134-13.551-15.73-14.599c0,0-5.453-6.141-11.654,1.505c0,0-2.724,7.204-13.41,0.438
			c0,0-9.337-6.799-14-10.918c0,0-11.062-6.77-20.96,2.834c0,0-8.556,9.82,1.157,19.221
			C385.091,1398.725,386.25,1401.778,414.416,1400.009z"/>
		<g>
			<path d="M145.013,1511.996c0,2.676-0.908,4.777-2.726,6.285c-1.846,1.531-4.634,2.281-8.457,2.281
				c-4.104,0-7.05-0.811-8.835-2.441c-1.785-1.631-2.692-4.026-2.692-7.225v-19.155h7.079v19.911c0,1.548,0.405,2.708,1.16,3.478
				c0.782,0.782,2.131,1.155,4.007,1.155c1.786,0,3.104-0.34,3.948-1.032c0.848-0.688,1.286-1.926,1.286-3.713v-19.799h5.23
				V1511.996z"/>
			<path d="M165.879,1520.237h-2.097l-10.936-12.455v12.455h-3.508v-19.802h2.634l10.431,11.684v-11.684h3.476V1520.237z"/>
			<path d="M175.625,1520.237h-4.918v-19.802h4.918V1520.237z"/>
			<path d="M196.958,1500.436l-7.36,19.802h-4.167l-7.173-19.802h5.323l4.669,13.678l4.698-13.678H196.958z"/>
			<path d="M212.654,1520.237h-13.879v-19.802h13.283v2.929h-8.363v5.323h6.516v2.98h-6.516v5.639h8.959V1520.237z"/>
			<path d="M230.607,1520.237h-4.856c-0.032-3.198-0.378-5.484-1.003-6.849c-0.628-1.363-1.63-2.052-3.006-2.052h-1.16v8.9h-4.917
				v-19.802h8.613c2.1,0,3.572,0.407,4.451,1.236c0.875,0.83,1.315,1.834,1.315,3.026v1.078c0,1.128-0.378,2.022-1.16,2.712
				c-0.752,0.688-1.911,1.093-3.413,1.22c1.69,0.44,2.974,1.487,3.85,3.073C230.17,1514.392,230.607,1516.866,230.607,1520.237z
				 M225.186,1506.152v-0.531c0-0.864-0.252-1.489-0.75-1.851c-0.503-0.376-1.253-0.546-2.228-0.546h-1.627v5.264h1.347
				c1.16,0,2.005-0.205,2.508-0.584C224.934,1507.515,225.186,1506.935,225.186,1506.152z"/>
			<path d="M247.492,1514.345c0,2.116-0.783,3.665-2.317,4.67c-1.538,1-3.699,1.502-6.454,1.502c-1.565,0-2.913-0.078-3.979-0.266
				c-1.096-0.159-1.973-0.36-2.696-0.629v-3.413c0.565,0.313,1.442,0.596,2.601,0.863c1.191,0.246,2.351,0.391,3.478,0.391
				c1.598,0,2.695-0.205,3.289-0.581c0.598-0.392,0.911-1.034,0.911-1.926c0-0.564-0.218-1.096-0.657-1.534
				c-0.439-0.439-1.661-1.033-3.696-1.787c-1.631-0.579-2.885-1.33-3.761-2.256c-0.91-0.939-1.348-2.191-1.348-3.775
				c0-1.535,0.722-2.818,2.163-3.869c1.439-1.048,3.414-1.582,5.953-1.582c1.221,0,2.317,0.095,3.321,0.283
				c0.972,0.171,1.661,0.344,2.066,0.486v2.976c-0.843-0.188-1.691-0.345-2.507-0.472c-0.811-0.139-1.691-0.201-2.63-0.201
				c-1.285,0-2.254,0.17-2.82,0.546c-0.594,0.376-0.876,0.83-0.876,1.395c0,0.689,0.22,1.221,0.659,1.585
				c0.438,0.355,1.721,0.891,3.821,1.58c1.973,0.654,3.383,1.473,4.198,2.473C247.054,1511.807,247.492,1512.982,247.492,1514.345z"
				/>
			<path d="M256.265,1520.237h-4.919v-19.802h4.919V1520.237z"/>
			<path d="M273.934,1503.364h-4.729v16.873h-4.921v-16.873H259.4v-2.929h14.533V1503.364z"/>
			<path d="M281.954,1520.237h-4.918v-19.802h4.918V1520.237z"/>
			<path d="M328.7,1520.237h-6.421v-16.354l-9.714,16.354h-3.635l-9.055-16.354v16.354h-4.888v-28.496h5.265l11.842,20.788
				l12.03-20.788h4.575V1520.237z"/>
			<path d="M351.132,1520.237h-5.048l-1.595-4.75h-7.27l-1.661,4.75h-3.979l7.363-19.802h4.605L351.132,1520.237z M343.423,1512.621
				l-2.693-7.285l-2.571,7.285H343.423z"/>
			<path d="M366.357,1520.237h-13.034v-19.802h4.918v16.871h8.115V1520.237z"/>
			<path d="M387.094,1520.237h-5.041l-1.599-4.75h-7.269l-1.659,4.75h-3.98l7.362-19.802h4.605L387.094,1520.237z M379.42,1512.621
				l-2.725-7.285l-2.54,7.285H379.42z"/>
			<path d="M406.552,1500.436l-7.239,11.422v8.38h-4.884v-7.943L387,1500.436h5.733l4.826,7.941l5.106-7.941H406.552z"/>
			<path d="M422.183,1514.345c0,2.116-0.752,3.665-2.288,4.67c-1.565,1-3.695,1.502-6.45,1.502c-1.567,0-2.913-0.078-3.979-0.266
				c-1.097-0.159-1.973-0.36-2.694-0.611v-3.431c0.563,0.313,1.441,0.596,2.6,0.863c1.19,0.246,2.318,0.391,3.478,0.391
				c1.601,0,2.695-0.205,3.292-0.581c0.596-0.392,0.906-1.034,0.906-1.926c0-0.564-0.218-1.084-0.655-1.534
				c-0.439-0.439-1.664-1.033-3.729-1.787c-1.599-0.579-2.853-1.33-3.729-2.256c-0.91-0.939-1.346-2.191-1.346-3.775
				c0-1.535,0.718-2.818,2.16-3.869c1.439-1.048,3.414-1.582,5.954-1.582c1.221,0,2.314,0.095,3.317,0.283
				c0.975,0.171,1.663,0.344,2.069,0.486v2.976c-0.846-0.188-1.659-0.345-2.506-0.472c-0.817-0.139-1.66-0.201-2.602-0.201
				c-1.314,0-2.285,0.17-2.848,0.546c-0.596,0.376-0.88,0.83-0.88,1.395c0,0.689,0.217,1.221,0.659,1.585
				c0.438,0.355,1.688,0.89,3.823,1.594c1.972,0.641,3.383,1.459,4.196,2.459C421.779,1511.807,422.183,1512.982,422.183,1514.345z"
				/>
			<path d="M430.986,1520.237h-4.916v-19.802h4.916V1520.237z"/>
			<path d="M453.576,1520.237h-5.045l-1.594-4.75h-7.271l-1.66,4.75h-4.012l7.396-19.802h4.573L453.576,1520.237z M445.869,1512.621
				l-2.693-7.285l-2.566,7.285H445.869z"/>
			<path d="M482.182,1496.02h-6.833v24.218h-7.079v-24.218h-7.017v-4.278h20.929V1496.02z"/>
			<path d="M498.377,1520.237h-13.88v-19.802h13.286v2.929h-8.365v5.323h6.516v2.98h-6.516v5.639h8.959V1520.237z"/>
			<path d="M516.362,1520.237h-4.89c-0.059-3.198-0.374-5.472-1.003-6.849c-0.626-1.363-1.63-2.052-3.007-2.052h-1.157v8.9h-4.891
				v-19.802H510c2.102,0,3.604,0.407,4.45,1.236c0.878,0.83,1.316,1.834,1.316,3.026v1.078c0,1.128-0.378,2.021-1.129,2.712
				c-0.783,0.688-1.944,1.093-3.479,1.22c1.755,0.44,3.041,1.487,3.885,3.073C515.89,1514.392,516.362,1516.866,516.362,1520.237z
				 M510.911,1506.152v-0.531c0-0.864-0.252-1.489-0.753-1.851c-0.535-0.376-1.254-0.546-2.223-0.546h-1.63v5.264h1.347
				c1.159,0,1.971-0.205,2.506-0.584C510.659,1507.515,510.911,1506.935,510.911,1506.152z"/>
			<path d="M533.404,1520.237h-13.878v-19.802h13.282v2.929h-8.364v5.323h6.516v2.98h-6.516v5.639h8.96V1520.237z"/>
			<path d="M552.668,1520.237h-2.096l-10.934-12.455v12.455h-3.478v-19.802h2.599l10.433,11.684v-11.684h3.476V1520.237z"/>
			<path d="M573.002,1517.258c-0.689,0.971-1.689,1.738-2.978,2.364c-1.282,0.629-2.97,0.94-5.071,0.94
				c-2.853,0-5.107-0.828-6.768-2.49c-1.632-1.658-2.479-4.088-2.479-7.25v-1.084c0-2.818,0.943-5.119,2.728-6.904
				c1.849-1.787,4.387-2.682,7.675-2.682c1.193,0,2.258,0.108,3.103,0.313c0.812,0.221,1.442,0.407,1.849,0.611v3.179
				c-0.501-0.201-1.128-0.438-1.912-0.671c-0.75-0.251-1.626-0.36-2.6-0.36c-1.786,0-3.192,0.532-4.26,1.628
				c-1.064,1.081-1.6,2.897-1.6,5.421v0.279c0,2.632,0.408,4.45,1.225,5.469c0.812,1.018,1.973,1.521,3.445,1.521
				c0.815,0,1.535-0.131,2.194-0.361c0.656-0.27,1.096-0.551,1.282-0.862v-4.042h-3.321v-2.664h7.487V1517.258z"/>
			<path d="M592.676,1517.258c-0.688,0.971-1.659,1.738-2.941,2.364c-1.317,0.629-3.009,0.94-5.076,0.94
				c-2.853,0-5.141-0.828-6.766-2.49c-1.662-1.658-2.476-4.088-2.476-7.25v-1.084c0-2.818,0.909-5.119,2.726-6.904
				c1.813-1.787,4.387-2.682,7.644-2.682c1.224,0,2.286,0.108,3.133,0.313c0.815,0.221,1.442,0.407,1.847,0.611v3.179
				c-0.532-0.201-1.128-0.438-1.91-0.671c-0.752-0.251-1.628-0.36-2.632-0.36c-1.756,0-3.163,0.532-4.259,1.628
				c-1.067,1.081-1.6,2.897-1.6,5.421v0.279c0,2.632,0.407,4.45,1.256,5.469c0.812,1.018,1.972,1.521,3.444,1.521
				c0.784,0,1.504-0.131,2.194-0.361c0.626-0.27,1.062-0.551,1.281-0.862v-4.042h-3.353v-2.664h7.487V1517.258z"/>
			<path d="M613.514,1520.237h-5.047l-1.595-4.75h-7.271l-1.658,4.75h-3.98l7.364-19.802h4.607L613.514,1520.237z M605.837,1512.621
				l-2.725-7.285l-2.57,7.285H605.837z"/>
			<path d="M631.963,1520.237h-2.097l-10.932-12.455v12.455h-3.511v-19.802h2.63l10.437,11.684v-11.684h3.473V1520.237z"/>
			<path d="M651.611,1514.518c0,1.865-0.66,3.318-1.909,4.386c-1.289,1.05-3.231,1.581-5.895,1.581
				c-2.884,0-4.916-0.564-6.171-1.692c-1.225-1.127-1.85-2.817-1.85-5.043v-13.313h4.921v13.877c0,1.082,0.249,1.881,0.783,2.429
				c0.534,0.532,1.471,0.802,2.788,0.802c1.255,0,2.164-0.236,2.755-0.723c0.596-0.485,0.907-1.347,0.907-2.584v-13.801h3.67
				V1514.518z"/>
		</g>
		<path style="fill:#C6191F;" d="M109.214,1350.989"/>
		<g>
			<path d="M587.711,1232.932c0.352,1.619,0.542,3.297,0.542,5.02c0,2.282-0.332,4.488-0.938,6.577
				c97.223-0.698,160.1,8.906,160.1,8.906C694.289,1240.969,640.196,1234.817,587.711,1232.932z"/>
			<path d="M549.899,1232.287c-0.68,1.759-1.056,3.668-1.056,5.664c0,2.639,0.653,5.126,1.804,7.314
				c9.691-0.321,19.118-0.532,28.261-0.653c0.95-2.024,1.482-4.282,1.482-6.661c0-1.852-0.322-3.627-0.911-5.277
				C569.55,1232.401,559.685,1232.276,549.899,1232.287z"/>
			<path d="M174.444,1383.4c-55.105-32.404-13.209-81.74,172.549-116.291c70.904-13.16,137.494-19.289,195.253-21.54
				c-0.816-2.394-1.267-4.954-1.267-7.618c0-1.938,0.239-3.819,0.681-5.623c-186.437,1.663-341.536,51.652-341.536,51.652
				c-145.562,53.846-85.213,88.135-31.997,104.516"/>
		</g>
		<path d="M584.321,1237.951c0,10.883-8.821,19.705-19.707,19.705c-10.88,0-19.703-8.822-19.703-19.705
			c0-10.884,8.823-19.707,19.703-19.707C575.5,1218.244,584.321,1227.067,584.321,1237.951"/>
		<path d="M19.73,1456.651c0,0,179.234,27.381,400.42-13.689c221.217-41.122,238.416-103.262,130.64-132.757
			c0,0,229.834,36.889,16.229,115.902C567.019,1426.107,281.611,1518.121,19.73,1456.651z"/>
	</g>
	<g>
		<polygon style="fill:none;stroke:#000000;stroke-miterlimit:10;" points="389.819,605.255 125.777,850.394 648.497,850.394 		"/>
		<path style="fill:none;stroke:#000000;stroke-miterlimit:10;" d="M414.527,813.009c0,0-42.679,25.513-65.614,5.85
			c0,0,14.246-1.938,17.907-6.486c0,0,6.362-5.385-1.737-4.749c0,0-9.993,3.661-11.331-5.199c0,0-2.14-7.761,8.444-4.546
			c0,0,8.068,5.633,8.658-1.939c0,0,0.777-9.312-5.957-12.759c0,0-13.658-4.965-18.871,6.705c0,0-0.933,3.242,0.959,7.34
			c0,0,3.292,13.846-2.917,18.828c0,0-5.152,7.541-12.476,3.676c0,0-6.364-3.676,3.693-10.15c0,0,8.783-3.91,5.928-9.76
			c0,0-2.668-3.661-9.81,2.809c0,0-9.216,5.648-16.542,2.375c0,0-5.959-3.663-6.177-7.343c0,0-1.736-5.184,9.437-1.502
			c0,0,8.691,3.661,13.282-2.609l8.504-9.281c0,0,2.891-4.997-2.73-2.809c0,0-6.361,6.253-10.771,5.835c0,0-7.881,1.521-4.034-8.023
			c0,0,3.259-6.237,14.03-5.821l25.792-1.519c0,0-1.15-11.421-5.775-13.175c0,0-4.404-4.114-14.836,5.602
			c0,0-6.921,8.243-21.508,10.598c0,0-12.168,4.145-13.688,1.32c0,0-2.297-4.096,7.699-5.633c0,0,7.324-1.925,8.1-3.46
			c0,0,3.85-1.957-0.963-2.825c0,0-5.617,2.188-12.322-6.487c0,0-6.921-8.225,2.857-5.618c0,0,10.025,3.491,11.388,4.764
			c0,0,6.704,2.81,11.145,0c0,0,4.037-1.085-1.925-2.607c0,0-5.96,0.233-12.29-9.497c0,0-6.954-10.165-5.215-13.189
			c0,0,1.554-8.445,8.848,0c0,0,5.772,5.852,9.06,14.061c0,0,4.036,5.633,15.769,5.833c0,0,8.287-1.52,2.516-4.111
			c0,0-12.914-8.848-16.017-24.428c0,0-3.042-12.788,5.401-5.385c0,0,4.438,4.314,3.477,11.235c0,0,1.552,3.677,10.583,6.688
			c0,0,6.954,0.436,5.99,10.38c0,0-0.59,7.543,5.554,10.62c0,0,4.625,2.558,8.07-7.823c0,0,4.997-9.729-1.149-15.985
			c0,0-3.661-6.038-10.551-10.367c0,0-6.547-5.619-8.879-7.17c-2.295-1.489-2.295-2.156-7.695-2.779c0,0-6.364-2.202,0.188-7.54
			c0,0,5.585-5.013,11.95,1.707c0,0,8.843,9.312,10.365,9.498c0,0,4.253,2.374,6.362,1.536c0,0-2.327-4.578,8.29-13.222
			l9.029-15.552c0,0,8.475,1.521,3.258,11.905c0,0-3.814,5.834-6.733,7.339c0,0,5.214,0,8.101-1.938c0,0,15.025-5.199,7.325,7.338
			c0,0-1.769,3.462-12.138,3.012c0,0-4.81-0.854-10.366,8.645c0,0-1.177,3.91,3.229,6.504c0,0,2.917-9.282,16.76-5.186
			c0,0,12.29,4.127,16.761-1.939c0,0,6.331-4.332,3.074,5.199c0,0-5.214,10.582-19.651,4.95c0,0-7.881-6.254-13.841,3.431
			c0,0,0.746,12.166-4.438,16.017c0,0-6.547,7.37-7.882,12.553c0,0-1.739,7.793,1.737,13.611c0,0,3.633,7.138,6.335-4.533
			c0,0-1.339-21.631,9.434-25.729c0,0,10.582-5.185,19.055-5.185c0,0,7.513,0,12.696-14.248c0,0-0.962-9.107,4.438-11.451
			c0,0,12.664-1.753,3.446,11.234c0,0-4.966,6.893-6.329,10.367c0,0-2.517,6.921,4.994,2.812c0,0,6.736-4.114,7.887-9.734
			c0,0,4.22-12.104,18.247-5.166c0,0,6.362,3.226,8.691,9.264c0,0,2.667,7.357-6.179,3.882l-6.329-5.402
			c0,0-3.821-3.012-7.293,4.144c0,0-3.665,12.057-19.245,15.318c0,0-15.984,0.217-19.835-0.637c0,0-16.73,3.244-15.954,19.661
			l13.629,5.402c0,0,3.475,0.451,4.808,2.823c0,0,3.076,3.044,7.73-4.763c0,0,6.519-17.723,25.949-16.621
			c0,0,9.623-0.652,15.984,3.677c0,0,5.588,2.762,5.588-3.259c0,0-1.183-6.067,0.743-8.21c0,0,4.438-7.806,7.698,3.213
			c0,0,3.476,11.904-3.635,15.383c0,0-4.807,4.714-20.981,0.433c0,0-18.281-5.632-24.24,9.046c0,0-5.587,13.44,5.584,9.312
			c0,0,12.295-6.257,19.247-9.717c0,0,8.255-5.183,16.139,3.913c0,0,4.472,3.647,1.742,7.961c0,0-4.038,3.476-6.52-3.461
			c0,0-3.879-6.254-7.727-1.923c0,0-2.857,3.909,3.288,8.859l8.846,11.019c0,0,3.629,9.095-5.772,5.197
			c0,0-14.992-13.421-15.583-14.462c0,0-5.401-6.084-11.546,1.489c0,0-2.698,7.139-13.285,0.435c0,0-9.25-6.733-13.872-10.816
			c0,0-10.958-6.705-20.765,2.809c0,0-8.476,9.73,1.147,19.044C385.475,811.737,386.624,814.762,414.527,813.009z"/>
		<path style="fill:none;stroke:#000000;stroke-miterlimit:10;" d="M23.507,869.125c0,0,177.57,27.126,396.7-13.562
			C639.37,814.824,656.408,753.26,549.635,724.036c0,0,227.697,36.548,16.08,114.827
			C565.715,838.863,282.958,930.024,23.507,869.125z"/>
		<g>
			<path style="fill:none;stroke:#000000;stroke-miterlimit:10;" d="M147.627,923.957c0,2.65-0.9,4.73-2.702,6.224
				c-1.829,1.519-4.59,2.263-8.377,2.263c-4.067,0-6.985-0.805-8.754-2.419c-1.768-1.616-2.668-3.99-2.668-7.158v-18.978h7.014
				v19.727c0,1.532,0.401,2.682,1.15,3.444c0.775,0.775,2.11,1.146,3.97,1.146c1.769,0,3.075-0.339,3.911-1.022
				c0.841-0.684,1.274-1.91,1.274-3.681v-19.614h5.182V923.957z"/>
			<path style="fill:none;stroke:#000000;stroke-miterlimit:10;" d="M168.3,932.12h-2.08l-10.833-12.339v12.339h-3.475v-19.618
				h2.608l10.333,11.574v-11.574h3.446V932.12z"/>
			<path style="fill:none;stroke:#000000;stroke-miterlimit:10;" d="M177.954,932.12h-4.873v-19.618h4.873V932.12z"/>
			<path style="fill:none;stroke:#000000;stroke-miterlimit:10;" d="M199.088,912.502l-7.291,19.618h-4.127l-7.109-19.618h5.276
				l4.624,13.552l4.655-13.552H199.088z"/>
			<path style="fill:none;stroke:#000000;stroke-miterlimit:10;" d="M214.641,932.12h-13.751v-19.618h13.16v2.903h-8.285v5.273
				h6.456v2.951h-6.456v5.587h8.876V932.12z"/>
			<path style="fill:none;stroke:#000000;stroke-miterlimit:10;" d="M232.426,932.12h-4.812c-0.032-3.169-0.373-5.433-0.993-6.784
				c-0.623-1.35-1.614-2.033-2.979-2.033h-1.149v8.817h-4.871v-19.618h8.532c2.08,0,3.539,0.404,4.409,1.226
				c0.868,0.822,1.303,1.816,1.303,2.996v1.07c0,1.116-0.374,2.005-1.148,2.686c-0.745,0.684-1.894,1.085-3.381,1.211
				c1.674,0.435,2.946,1.473,3.815,3.043C231.992,926.33,232.426,928.781,232.426,932.12z M227.055,918.166v-0.526
				c0-0.854-0.25-1.477-0.743-1.831c-0.5-0.376-1.243-0.545-2.208-0.545h-1.612v5.216h1.334c1.148,0,1.986-0.202,2.485-0.576
				C226.806,919.516,227.055,918.94,227.055,918.166z"/>
			<path style="fill:none;stroke:#000000;stroke-miterlimit:10;" d="M249.155,926.281c0,2.099-0.777,3.632-2.295,4.628
				c-1.523,0.99-3.665,1.487-6.395,1.487c-1.551,0-2.887-0.078-3.942-0.264c-1.087-0.156-1.955-0.354-2.67-0.622v-3.383
				c0.56,0.312,1.428,0.592,2.577,0.856c1.181,0.244,2.329,0.388,3.446,0.388c1.583,0,2.667-0.202,3.258-0.576
				c0.592-0.388,0.9-1.024,0.9-1.906c0-0.56-0.217-1.088-0.651-1.521c-0.437-0.434-1.645-1.024-3.662-1.771
				c-1.616-0.572-2.856-1.317-3.726-2.234c-0.901-0.929-1.335-2.171-1.335-3.74c0-1.521,0.716-2.791,2.143-3.832
				c1.426-1.039,3.382-1.567,5.898-1.567c1.21,0,2.294,0.093,3.291,0.279c0.96,0.17,1.643,0.34,2.046,0.482v2.947
				c-0.837-0.185-1.676-0.342-2.484-0.467c-0.804-0.138-1.675-0.201-2.607-0.201c-1.271,0-2.232,0.169-2.792,0.545
				c-0.589,0.371-0.869,0.821-0.869,1.381c0,0.682,0.218,1.209,0.651,1.57c0.436,0.353,1.707,0.881,3.789,1.564
				c1.952,0.649,3.35,1.457,4.159,2.449C248.719,923.769,249.155,924.935,249.155,926.281z"/>
			<path style="fill:none;stroke:#000000;stroke-miterlimit:10;" d="M257.846,932.12h-4.874v-19.618h4.874V932.12z"/>
			<path style="fill:none;stroke:#000000;stroke-miterlimit:10;" d="M275.35,915.405h-4.684v16.715h-4.875v-16.715h-4.84v-2.903
				h14.398V915.405z"/>
			<path style="fill:none;stroke:#000000;stroke-miterlimit:10;" d="M283.295,932.12h-4.872v-19.618h4.872V932.12z"/>
			<path style="fill:none;stroke:#000000;stroke-miterlimit:10;" d="M329.607,932.12h-6.362v-16.204l-9.622,16.204h-3.603
				l-8.969-16.204v16.204h-4.842v-28.231h5.214l11.733,20.595l11.917-20.595h4.533V932.12z"/>
			<path style="fill:none;stroke:#000000;stroke-miterlimit:10;" d="M351.832,932.12h-5.001l-1.58-4.706h-7.202l-1.646,4.706h-3.942
				l7.294-19.618h4.562L351.832,932.12z M344.194,924.576l-2.668-7.218l-2.546,7.218H344.194z"/>
			<path style="fill:none;stroke:#000000;stroke-miterlimit:10;" d="M366.915,932.12h-12.912v-19.618h4.873v16.715h8.039V932.12z"/>
			<path style="fill:none;stroke:#000000;stroke-miterlimit:10;" d="M387.46,932.12h-4.996l-1.583-4.706h-7.199l-1.645,4.706h-3.945
				l7.296-19.618h4.561L387.46,932.12z M379.859,924.576l-2.701-7.218l-2.515,7.218H379.859z"/>
			<path style="fill:none;stroke:#000000;stroke-miterlimit:10;" d="M406.737,912.502l-7.173,11.315v8.303h-4.837v-7.869
				l-7.36-11.749h5.68l4.782,7.868l5.059-7.868H406.737z"/>
			<path style="fill:none;stroke:#000000;stroke-miterlimit:10;" d="M422.223,926.281c0,2.099-0.744,3.632-2.266,4.628
				c-1.552,0.99-3.663,1.487-6.395,1.487c-1.55,0-2.884-0.078-3.94-0.264c-1.085-0.156-1.954-0.354-2.669-0.605v-3.399
				c0.56,0.312,1.428,0.592,2.577,0.856c1.179,0.244,2.295,0.388,3.445,0.388c1.584,0,2.668-0.202,3.261-0.576
				c0.59-0.388,0.897-1.024,0.897-1.906c0-0.56-0.215-1.074-0.65-1.521c-0.434-0.434-1.647-1.024-3.693-1.771
				c-1.585-0.572-2.824-1.317-3.693-2.234c-0.902-0.929-1.335-2.171-1.335-3.74c0-1.521,0.712-2.791,2.141-3.832
				c1.427-1.039,3.382-1.567,5.898-1.567c1.21,0,2.294,0.093,3.285,0.279c0.967,0.17,1.649,0.34,2.052,0.482v2.947
				c-0.838-0.185-1.645-0.342-2.482-0.467c-0.808-0.138-1.645-0.201-2.575-0.201c-1.305,0-2.265,0.169-2.824,0.545
				c-0.59,0.371-0.872,0.821-0.872,1.381c0,0.682,0.216,1.209,0.653,1.57c0.435,0.353,1.674,0.881,3.789,1.578
				c1.951,0.636,3.35,1.443,4.156,2.436C421.822,923.769,422.223,924.935,422.223,926.281z"/>
			<path style="fill:none;stroke:#000000;stroke-miterlimit:10;" d="M430.946,932.12h-4.874v-19.618h4.874V932.12z"/>
			<path style="fill:none;stroke:#000000;stroke-miterlimit:10;" d="M453.325,932.12h-4.999l-1.579-4.706h-7.202l-1.645,4.706
				h-3.973l7.324-19.618h4.531L453.325,932.12z M445.688,924.576l-2.668-7.218l-2.544,7.218H445.688z"/>
			<path style="fill:none;stroke:#000000;stroke-miterlimit:10;" d="M481.665,908.127h-6.77v23.993h-7.013v-23.993h-6.951v-4.238
				h20.733V908.127z"/>
			<path style="fill:none;stroke:#000000;stroke-miterlimit:10;" d="M497.709,932.12h-13.75v-19.618h13.163v2.903h-8.288v5.273
				h6.454v2.951h-6.454v5.587h8.875V932.12z"/>
			<path style="fill:none;stroke:#000000;stroke-miterlimit:10;" d="M515.527,932.12h-4.845c-0.057-3.169-0.372-5.422-0.992-6.784
				c-0.619-1.35-1.615-2.033-2.978-2.033h-1.149v8.817h-4.844v-19.618h8.506c2.082,0,3.569,0.404,4.408,1.226
				c0.868,0.822,1.304,1.816,1.304,2.996v1.07c0,1.116-0.372,2.001-1.118,2.686c-0.775,0.684-1.925,1.085-3.445,1.211
				c1.737,0.435,3.012,1.473,3.847,3.043C515.059,926.33,515.527,928.781,515.527,932.12z M510.125,918.166v-0.526
				c0-0.854-0.247-1.477-0.744-1.831c-0.53-0.376-1.241-0.545-2.202-0.545h-1.615v5.216h1.335c1.148,0,1.952-0.202,2.482-0.576
				C509.877,919.516,510.125,918.94,510.125,918.166z"/>
			<path style="fill:none;stroke:#000000;stroke-miterlimit:10;" d="M532.409,932.12h-13.747v-19.618h13.159v2.903h-8.288v5.273
				h6.458v2.951h-6.458v5.587h8.876V932.12z"/>
			<path style="fill:none;stroke:#000000;stroke-miterlimit:10;" d="M551.497,932.12h-2.075l-10.833-12.339v12.339h-3.445v-19.618
				h2.576l10.334,11.574v-11.574h3.443V932.12z"/>
			<path style="fill:none;stroke:#000000;stroke-miterlimit:10;" d="M571.64,929.17c-0.681,0.961-1.673,1.721-2.948,2.341
				c-1.27,0.622-2.945,0.933-5.026,0.933c-2.824,0-5.058-0.822-6.702-2.466c-1.617-1.644-2.458-4.053-2.458-7.184v-1.074
				c0-2.794,0.937-5.073,2.704-6.842c1.834-1.771,4.346-2.655,7.604-2.655c1.184,0,2.236,0.107,3.073,0.31
				c0.806,0.219,1.431,0.405,1.834,0.605v3.149c-0.497-0.2-1.119-0.435-1.897-0.664c-0.743-0.248-1.608-0.359-2.574-0.359
				c-1.77,0-3.163,0.529-4.221,1.614c-1.054,1.071-1.585,2.872-1.585,5.371v0.277c0,2.606,0.406,4.408,1.215,5.418
				c0.806,1.007,1.953,1.507,3.412,1.507c0.809,0,1.521-0.129,2.174-0.361c0.649-0.264,1.086-0.544,1.271-0.853v-4.003h-3.29v-2.64
				h7.416V929.17z"/>
			<path style="fill:none;stroke:#000000;stroke-miterlimit:10;" d="M591.134,929.17c-0.683,0.961-1.646,1.721-2.915,2.341
				c-1.307,0.622-2.98,0.933-5.029,0.933c-2.825,0-5.094-0.822-6.704-2.466c-1.646-1.644-2.452-4.053-2.452-7.184v-1.074
				c0-2.794,0.901-5.073,2.7-6.842c1.798-1.771,4.347-2.655,7.573-2.655c1.211,0,2.264,0.107,3.104,0.31
				c0.809,0.219,1.429,0.405,1.83,0.605v3.149c-0.527-0.2-1.118-0.435-1.893-0.664c-0.746-0.248-1.613-0.359-2.605-0.359
				c-1.741,0-3.135,0.529-4.222,1.614c-1.057,1.071-1.585,2.872-1.585,5.371v0.277c0,2.606,0.404,4.408,1.244,5.418
				c0.806,1.007,1.954,1.507,3.413,1.507c0.776,0,1.489-0.129,2.175-0.361c0.619-0.264,1.053-0.544,1.27-0.853v-4.003h-3.32v-2.64
				h7.417V929.17z"/>
			<path style="fill:none;stroke:#000000;stroke-miterlimit:10;" d="M611.778,932.12h-5.001l-1.579-4.706h-7.205l-1.641,4.706
				h-3.945l7.297-19.618h4.562L611.778,932.12z M604.172,924.576l-2.7-7.218l-2.546,7.218H604.172z"/>
			<path style="fill:none;stroke:#000000;stroke-miterlimit:10;" d="M630.057,932.12h-2.08l-10.83-12.339v12.339h-3.478v-19.618
				h2.605l10.34,11.574v-11.574h3.442V932.12z"/>
			<path style="fill:none;stroke:#000000;stroke-miterlimit:10;" d="M649.519,926.454c0,1.849-0.651,3.288-1.891,4.345
				c-1.276,1.041-3.202,1.566-5.838,1.566c-2.857,0-4.872-0.557-6.114-1.676c-1.214-1.116-1.835-2.794-1.835-4.998v-13.189h4.877
				v13.748c0,1.074,0.248,1.862,0.776,2.407c0.527,0.527,1.455,0.794,2.76,0.794c1.244,0,2.146-0.234,2.73-0.715
				c0.59-0.483,0.901-1.335,0.901-2.562v-13.673h3.633V926.454z"/>
		</g>
		<path style="fill:#C6191F;" d="M112.16,764.443"/>
		<path style="fill:none;stroke:#000000;stroke-miterlimit:10;" d="M176.44,803.36c-53.846-15.457-123.853-49.949,25.787-105.303
			c0,0,282.757-91.145,542.208-30.262c0,0-177.571-27.129-396.702,13.548C159,716.445,120.165,766.955,181.15,798.98L176.44,803.36z
			"/>
		<path style="fill:none;stroke:#000000;stroke-miterlimit:10;" d="M582.855,652.455c0,10.782-8.74,19.522-19.523,19.522
			c-10.778,0-19.521-8.74-19.521-19.522s8.743-19.523,19.521-19.523C574.115,632.932,582.855,641.673,582.855,652.455"/>
	</g>
	<g>
		<path style="fill:#FFFFFF;" d="M414.942,1981.979c0,0-42.812,25.592-65.818,5.868c0,0,14.289-1.946,17.962-6.509
			c0,0,6.383-5.399-1.74-4.762c0,0-10.024,3.673-11.365-5.216c0,0-2.147-7.784,8.469-4.56c0,0,8.093,5.65,8.686-1.946
			c0,0,0.778-9.34-5.977-12.798c0,0-13.7-4.98-18.93,6.726c0,0-0.935,3.251,0.964,7.362c0,0,3.301,13.89-2.926,18.885
			c0,0-5.17,7.567-12.517,3.688c0,0-6.382-3.688,3.706-10.181c0,0,8.812-3.921,5.947-9.79c0,0-2.677-3.671-9.84,2.816
			c0,0-9.245,5.668-16.592,2.383c0,0-5.98-3.677-6.198-7.364c0,0-1.741-5.2,9.467-1.506c0,0,8.717,3.671,13.323-2.62l8.531-9.308
			c0,0,2.898-5.013-2.737-2.818c0,0-6.383,6.272-10.806,5.854c0,0-7.906,1.524-4.048-8.048c0,0,3.27-6.258,14.074-5.839
			l25.873-1.525c0,0-1.152-11.457-5.792-13.217c0,0-4.419-4.127-14.884,5.62c0,0-6.942,8.268-21.575,10.632
			c0,0-12.206,4.157-13.729,1.323c0,0-2.305-4.108,7.721-5.65c0,0,7.347-1.931,8.125-3.471c0,0,3.862-1.963-0.965-2.834
			c0,0-5.637,2.194-12.363-6.508c0,0-6.941-8.251,2.866-5.636c0,0,10.057,3.501,11.424,4.778c0,0,6.726,2.819,11.179,0
			c0,0,4.05-1.091-1.929-2.612c0,0-5.979,0.23-12.331-9.529c0,0-6.975-10.197-5.229-13.231c0,0,1.556-8.471,8.874,0
			c0,0,5.791,5.869,9.087,14.104c0,0,4.05,5.651,15.818,5.852c0,0,8.313-1.524,2.523-4.124c0,0-12.952-8.874-16.064-24.504
			c0,0-3.054-12.828,5.417-5.402c0,0,4.452,4.328,3.489,11.272c0,0,1.556,3.688,10.615,6.708c0,0,6.975,0.437,6.01,10.415
			c0,0-0.594,7.563,5.572,10.649c0,0,4.64,2.568,8.095-7.847c0,0,5.011-9.76-1.152-16.034c0,0-3.674-6.057-10.585-10.4
			c0,0-6.568-5.637-8.905-7.192c-2.304-1.493-2.304-2.163-7.722-2.786c0,0-6.383-2.211,0.188-7.564c0,0,5.605-5.028,11.988,1.712
			c0,0,8.87,9.339,10.397,9.529c0,0,4.266,2.38,6.383,1.538c0,0-2.334-4.592,8.315-13.263l9.06-15.601c0,0,8.499,1.527,3.265,11.943
			c0,0-3.823,5.853-6.752,7.363c0,0,5.229,0,8.125-1.946c0,0,15.07-5.216,7.348,7.362c0,0-1.773,3.471-12.176,3.021
			c0,0-4.826-0.857-10.396,8.671c0,0-1.183,3.922,3.237,6.522c0,0,2.927-9.311,16.813-5.201c0,0,12.327,4.142,16.812-1.944
			c0,0,6.351-4.345,3.084,5.216c0,0-5.233,10.615-19.712,4.964c0,0-7.906-6.272-13.885,3.442c0,0,0.749,12.203-4.452,16.064
			c0,0-6.568,7.396-7.907,12.593c0,0-1.744,7.818,1.744,13.653c0,0,3.642,7.162,6.351-4.544c0,0-1.342-21.702,9.465-25.812
			c0,0,10.617-5.2,19.115-5.2c0,0,7.535,0,12.736-14.291c0,0-0.968-9.137,4.452-11.487c0,0,12.703-1.76,3.456,11.27
			c0,0-4.981,6.912-6.35,10.398c0,0-2.526,6.943,5.01,2.821c0,0,6.757-4.127,7.91-9.765c0,0,4.234-12.14,18.305-5.183
			c0,0,6.385,3.236,8.718,9.292c0,0,2.677,7.381-6.195,3.896l-6.351-5.42c0,0-3.831-3.02-7.315,4.155
			c0,0-3.675,12.098-19.305,15.364c0,0-16.035,0.22-19.896-0.636c0,0-16.783,3.254-16.006,19.724l13.671,5.417
			c0,0,3.486,0.453,4.823,2.834c0,0,3.086,3.053,7.754-4.779c0,0,6.539-17.777,26.031-16.674c0,0,9.653-0.652,16.036,3.689
			c0,0,5.603,2.772,5.603-3.268c0,0-1.184-6.088,0.747-8.237c0,0,4.451-7.83,7.72,3.226c0,0,3.489,11.94-3.644,15.428
			c0,0-4.823,4.73-21.046,0.436c0,0-18.338-5.65-24.317,9.074c0,0-5.604,13.482,5.604,9.342c0,0,12.331-6.277,19.305-9.747
			c0,0,8.281-5.198,16.189,3.924c0,0,4.483,3.658,1.747,7.985c0,0-4.05,3.488-6.541-3.471c0,0-3.891-6.272-7.749-1.929
			c0,0-2.866,3.922,3.298,8.888l8.873,11.053c0,0,3.641,9.124-5.788,5.213c0,0-15.04-13.463-15.633-14.506
			c0,0-5.419-6.104-11.581,1.494c0,0-2.708,7.159-13.328,0.436c0,0-9.279-6.756-13.915-10.851c0,0-10.992-6.726-20.828,2.817
			c0,0-8.502,9.761,1.15,19.102C385.8,1980.701,386.951,1983.736,414.942,1981.979z"/>
		<path style="fill:#FFFFFF;" d="M22.704,2038.269c0,0,178.123,27.211,397.938-13.604
			c219.845-40.866,236.938-102.621,129.83-131.935c0,0,228.41,36.66,16.13,115.184
			C566.601,2007.914,282.962,2099.357,22.704,2038.269z"/>
		<g>
			<path style="fill:#FFFFFF;" d="M147.209,2093.271c0,2.659-0.902,4.746-2.708,6.243c-1.835,1.522-4.604,2.27-8.403,2.27
				c-4.081,0-7.008-0.806-8.782-2.427c-1.774-1.62-2.677-4.002-2.677-7.179v-19.037h7.035v19.788c0,1.538,0.403,2.691,1.154,3.453
				c0.777,0.78,2.116,1.149,3.983,1.149c1.774,0,3.085-0.337,3.923-1.025c0.841-0.685,1.277-1.913,1.277-3.689v-19.676h5.197
				V2093.271z"/>
			<path style="fill:#FFFFFF;" d="M167.947,2101.459h-2.084l-10.867-12.375v12.375h-3.488v-19.678h2.618l10.368,11.61v-11.61h3.455
				V2101.459z"/>
			<path style="fill:#FFFFFF;" d="M177.632,2101.459h-4.888v-19.678h4.888V2101.459z"/>
			<path style="fill:#FFFFFF;" d="M198.832,2081.781l-7.313,19.678h-4.141l-7.129-19.678h5.292l4.637,13.593l4.671-13.593H198.832z"
				/>
			<path style="fill:#FFFFFF;" d="M214.432,2101.459h-13.793v-19.678h13.2v2.911h-8.311v5.291h6.476v2.96h-6.476v5.605h8.904
				V2101.459z"/>
			<path style="fill:#FFFFFF;" d="M232.272,2101.459h-4.826c-0.032-3.175-0.375-5.45-0.996-6.805c-0.624-1.354-1.62-2.04-2.988-2.04
				h-1.153v8.845h-4.885v-19.678h8.56c2.085,0,3.548,0.406,4.421,1.23c0.87,0.823,1.306,1.82,1.306,3.004v1.072
				c0,1.121-0.375,2.013-1.151,2.697c-0.747,0.684-1.899,1.086-3.392,1.213c1.68,0.436,2.957,1.479,3.827,3.052
				C231.836,2095.651,232.272,2098.11,232.272,2101.459z M226.886,2087.463v-0.528c0-0.856-0.249-1.48-0.745-1.837
				c-0.5-0.375-1.246-0.546-2.215-0.546h-1.618v5.233h1.339c1.153,0,1.993-0.206,2.494-0.581
				C226.637,2088.816,226.886,2088.24,226.886,2087.463z"/>
			<path style="fill:#FFFFFF;" d="M249.055,2095.604c0,2.104-0.778,3.645-2.303,4.642c-1.528,0.996-3.677,1.491-6.415,1.491
				c-1.556,0-2.895-0.076-3.954-0.263c-1.09-0.158-1.96-0.357-2.677-0.623v-3.393c0.561,0.311,1.432,0.592,2.583,0.857
				c1.183,0.245,2.334,0.388,3.455,0.388c1.589,0,2.678-0.203,3.27-0.578c0.594-0.388,0.903-1.027,0.903-1.912
				c0-0.562-0.218-1.09-0.655-1.526c-0.434-0.435-1.648-1.028-3.671-1.776c-1.62-0.574-2.866-1.32-3.738-2.241
				c-0.905-0.933-1.338-2.177-1.338-3.752c0-1.525,0.717-2.802,2.149-3.845c1.432-1.041,3.393-1.571,5.914-1.571
				c1.214,0,2.304,0.095,3.302,0.28c0.964,0.17,1.65,0.341,2.053,0.483v2.957c-0.839-0.185-1.681-0.342-2.491-0.466
				c-0.807-0.142-1.681-0.204-2.613-0.204c-1.278,0-2.242,0.171-2.802,0.546c-0.594,0.373-0.872,0.822-0.872,1.384
				c0,0.685,0.218,1.215,0.653,1.575c0.436,0.355,1.709,0.885,3.799,1.57c1.959,0.651,3.36,1.463,4.171,2.458
				C248.62,2093.082,249.055,2094.252,249.055,2095.604z"/>
			<path style="fill:#FFFFFF;" d="M257.772,2101.459h-4.888v-19.678h4.888V2101.459z"/>
			<path style="fill:#FFFFFF;" d="M275.33,2084.692h-4.698v16.767h-4.891v-16.767h-4.855v-2.911h14.443V2084.692z"/>
			<path style="fill:#FFFFFF;" d="M283.302,2101.459h-4.888v-19.678h4.888V2101.459z"/>
			<path style="fill:#FFFFFF;" d="M329.757,2101.459h-6.383v-16.253l-9.652,16.253h-3.613l-8.999-16.253v16.253h-4.856v-28.317
				h5.232l11.77,20.659l11.955-20.659h4.546V2101.459z"/>
			<path style="fill:#FFFFFF;" d="M352.051,2101.459h-5.016l-1.586-4.719h-7.224l-1.65,4.719h-3.956l7.317-19.678h4.578
				L352.051,2101.459z M344.39,2093.893l-2.677-7.241l-2.554,7.241H344.39z"/>
			<path style="fill:#FFFFFF;" d="M367.182,2101.459h-12.953v-19.678h4.889v16.768h8.064V2101.459z"/>
			<path style="fill:#FFFFFF;" d="M387.791,2101.459h-5.01l-1.589-4.719h-7.224l-1.648,4.719h-3.956l7.319-19.678h4.575
				L387.791,2101.459z M380.165,2093.893l-2.709-7.241l-2.523,7.241H380.165z"/>
			<path style="fill:#FFFFFF;" d="M407.127,2081.781l-7.194,11.35v8.328h-4.854v-7.893l-7.381-11.785h5.696l4.796,7.892l5.075-7.892
				H407.127z"/>
			<path style="fill:#FFFFFF;" d="M422.662,2095.604c0,2.104-0.746,3.645-2.272,4.642c-1.557,0.996-3.673,1.491-6.412,1.491
				c-1.557,0-2.896-0.076-3.955-0.263c-1.088-0.158-1.96-0.357-2.677-0.606v-3.409c0.561,0.311,1.432,0.592,2.585,0.857
				c1.182,0.245,2.303,0.388,3.455,0.388c1.59,0,2.678-0.203,3.271-0.578c0.593-0.388,0.901-1.027,0.901-1.912
				c0-0.562-0.215-1.076-0.653-1.526c-0.435-0.435-1.65-1.028-3.704-1.776c-1.589-0.574-2.834-1.32-3.705-2.241
				c-0.903-0.933-1.339-2.177-1.339-3.752c0-1.525,0.714-2.802,2.148-3.845c1.431-1.041,3.392-1.571,5.916-1.571
				c1.213,0,2.301,0.095,3.297,0.28c0.968,0.17,1.653,0.341,2.057,0.483v2.957c-0.841-0.185-1.649-0.342-2.489-0.466
				c-0.813-0.142-1.651-0.204-2.587-0.204c-1.307,0-2.27,0.171-2.829,0.546c-0.593,0.373-0.875,0.822-0.875,1.384
				c0,0.685,0.218,1.215,0.655,1.575c0.436,0.355,1.677,0.884,3.8,1.586c1.958,0.636,3.36,1.447,4.168,2.442
				C422.259,2093.082,422.662,2094.252,422.662,2095.604z"/>
			<path style="fill:#FFFFFF;" d="M431.411,2101.459h-4.886v-19.678h4.886V2101.459z"/>
			<path style="fill:#FFFFFF;" d="M453.86,2101.459h-5.014l-1.584-4.719h-7.226l-1.648,4.719h-3.986l7.349-19.678h4.544
				L453.86,2101.459z M446.201,2093.893l-2.677-7.241l-2.552,7.241H446.201z"/>
			<path style="fill:#FFFFFF;" d="M482.287,2077.394h-6.789v24.065h-7.035v-24.065h-6.972v-4.252h20.796V2077.394z"/>
			<path style="fill:#FFFFFF;" d="M498.382,2101.459H484.59v-19.678h13.204v2.911h-8.314v5.291h6.476v2.96h-6.476v5.605h8.902
				V2101.459z"/>
			<path style="fill:#FFFFFF;" d="M516.256,2101.459h-4.858c-0.06-3.175-0.373-5.437-0.997-6.805
				c-0.621-1.354-1.619-2.04-2.987-2.04h-1.151v8.845h-4.858v-19.678h8.531c2.088,0,3.579,0.406,4.422,1.23
				c0.872,0.823,1.308,1.82,1.308,3.004v1.072c0,1.121-0.373,2.009-1.12,2.697c-0.778,0.684-1.932,1.086-3.458,1.213
				c1.743,0.436,3.021,1.479,3.858,3.052C515.788,2095.651,516.256,2098.11,516.256,2101.459z M510.837,2087.463v-0.528
				c0-0.856-0.247-1.48-0.747-1.837c-0.531-0.375-1.247-0.546-2.209-0.546h-1.619v5.233h1.338c1.152,0,1.959-0.206,2.49-0.581
				C510.59,2088.816,510.837,2088.24,510.837,2087.463z"/>
			<path style="fill:#FFFFFF;" d="M533.192,2101.459h-13.79v-19.678h13.199v2.911h-8.313v5.291h6.477v2.96h-6.477v5.605h8.904
				V2101.459z"/>
			<path style="fill:#FFFFFF;" d="M552.339,2101.459h-2.084l-10.866-12.375v12.375h-3.457v-19.678h2.585l10.365,11.61v-11.61h3.457
				V2101.459z"/>
			<path style="fill:#FFFFFF;" d="M572.544,2098.5c-0.684,0.964-1.678,1.729-2.957,2.351c-1.273,0.623-2.953,0.934-5.04,0.934
				c-2.834,0-5.075-0.823-6.727-2.473c-1.62-1.649-2.462-4.066-2.462-7.207v-1.076c0-2.804,0.937-5.09,2.71-6.863
				c1.837-1.778,4.359-2.664,7.627-2.664c1.187,0,2.244,0.108,3.084,0.31c0.808,0.221,1.432,0.406,1.837,0.608v3.159
				c-0.498-0.2-1.121-0.436-1.901-0.667c-0.744-0.248-1.615-0.359-2.582-0.359c-1.775,0-3.173,0.53-4.234,1.619
				c-1.057,1.073-1.59,2.881-1.59,5.386v0.281c0,2.614,0.408,4.421,1.218,5.434c0.807,1.013,1.96,1.51,3.425,1.51
				c0.81,0,1.524-0.129,2.179-0.358c0.652-0.267,1.09-0.547,1.275-0.856v-4.017h-3.301v-2.646h7.439V2098.5z"/>
			<path style="fill:#FFFFFF;" d="M592.099,2098.5c-0.683,0.964-1.649,1.729-2.926,2.351c-1.309,0.623-2.99,0.934-5.044,0.934
				c-2.832,0-5.108-0.823-6.724-2.473c-1.65-1.649-2.46-4.066-2.46-7.207v-1.076c0-2.804,0.902-5.09,2.708-6.863
				c1.804-1.778,4.359-2.664,7.597-2.664c1.215,0,2.271,0.108,3.114,0.31c0.809,0.221,1.432,0.406,1.835,0.608v3.159
				c-0.529-0.2-1.12-0.436-1.898-0.667c-0.747-0.248-1.617-0.359-2.613-0.359c-1.745,0-3.146,0.53-4.235,1.619
				c-1.06,1.073-1.588,2.881-1.588,5.386v0.281c0,2.614,0.405,4.421,1.247,5.434c0.807,1.013,1.958,1.51,3.424,1.51
				c0.778,0,1.494-0.129,2.181-0.358c0.621-0.267,1.056-0.547,1.271-0.856v-4.017h-3.329v-2.646h7.44V2098.5z"/>
			<path style="fill:#FFFFFF;" d="M612.806,2101.459h-5.017l-1.585-4.719h-7.227l-1.646,4.719h-3.957l7.317-19.678h4.58
				L612.806,2101.459z M605.177,2093.893l-2.708-7.241l-2.554,7.241H605.177z"/>
			<path style="fill:#FFFFFF;" d="M631.143,2101.459h-2.086l-10.865-12.375v12.375h-3.487v-19.678h2.612l10.372,11.61v-11.61h3.454
				V2101.459z"/>
			<path style="fill:#FFFFFF;" d="M650.666,2095.776c0,1.854-0.655,3.298-1.896,4.359c-1.28,1.044-3.213,1.571-5.855,1.571
				c-2.867,0-4.888-0.561-6.135-1.682c-1.215-1.12-1.838-2.803-1.838-5.013v-13.231h4.89v13.793c0,1.074,0.248,1.866,0.779,2.412
				c0.53,0.529,1.461,0.795,2.77,0.795c1.246,0,2.152-0.232,2.738-0.716c0.594-0.483,0.904-1.339,0.904-2.568v-13.716h3.644
				V2095.776z"/>
		</g>
		<path style="fill:#C6191F;" d="M111.632,1933.263"/>
		<g>
			<path style="fill:#FFFFFF;" d="M291.631,1865.05l-107.518,99.818c2.236,1.114,4.614,2.205,7.107,3.273l114.622-106.414
				C300.999,1862.818,296.26,1863.928,291.631,1865.05z"/>
			<path style="fill:#FFFFFF;" d="M184.114,1964.868l-58.82,54.61h302.303c13.577-2.602,26.467-5.305,38.662-8.104H144.656
				l46.565-43.233L184.114,1964.868z"/>
			<path style="fill:#FFFFFF;" d="M585.452,1969.099c2.295-1.445,4.438-2.895,6.438-4.349l-134.248-127.221
				c-3.317,0.332-6.633,0.67-9.942,1.026L585.452,1969.099z"/>
			<path style="fill:#FFFFFF;" d="M303.191,1854.316c4.551-1.031,9.188-2.051,13.925-3.055l12.685-11.778
				c-4.585,0.838-9.033,1.673-13.332,2.506L303.191,1854.316z"/>
			<path style="fill:#FFFFFF;" d="M440.266,1831.512c3.296-0.369,6.594-0.725,9.896-1.071l-7.049-6.68
				c-3.354,0.316-6.685,0.642-9.99,0.983L440.266,1831.512z"/>
			<path style="fill:#FFFFFF;" d="M340.379,1829.664l49.472-45.931l35.811,33.937c3.285-0.354,6.598-0.697,9.937-1.032
				l-45.439-43.062l-62.943,58.435C331.483,1831.227,335.875,1830.444,340.379,1829.664z"/>
			<path style="fill:#FFFFFF;" d="M498.586,2011.375c-10.304,2.785-21.22,5.487-32.729,8.104h43.679
				c12.419-2.995,23.064-5.766,31.652-8.104H498.586z"/>
			<path style="fill:#FFFFFF;" d="M611.292,1993.589l18.769,17.786h-60.995c-0.184,0.066-0.364,0.136-0.55,0.204l-0.156,0.055
				c-0.196,0.062-9.944,3.184-27.212,7.845h108.491l-31.168-29.536C616.172,1991.153,613.78,1992.368,611.292,1993.589z"/>
			<path style="fill:#FFFFFF;" d="M597.704,1970.26c-1.987,1.479-4.111,2.947-6.376,4.408l13.905,13.179
				c2.54-1.214,4.955-2.405,7.248-3.581L597.704,1970.26z"/>
		</g>
		<g>
			<g>
				<path style="fill:#FFFFFF;" d="M549.438,1814.653c-0.747,1.826-1.16,3.823-1.16,5.916c0,2.503,0.59,4.868,1.638,6.969
					c9.733-0.318,19.199-0.526,28.374-0.643c0.859-1.936,1.338-4.075,1.338-6.326c0-1.94-0.356-3.798-1.004-5.513
					C568.829,1814.78,559.095,1814.648,549.438,1814.653z"/>
			</g>
			<g>
				<path style="fill:#FFFFFF;" d="M586.844,1815.321c0.387,1.688,0.598,3.443,0.598,5.248c0,2.162-0.301,4.257-0.85,6.246
					c96.193-0.638,158.357,8.856,158.357,8.856C692.358,1823.333,638.812,1817.22,586.844,1815.321z"/>
			</g>
			<g>
				<path style="fill:#FFFFFF;" d="M175.003,1964.521c-53.967-32.209-12.005-81.032,172.007-115.258
					c70.694-13.12,137.074-19.208,194.606-21.429c-0.748-2.289-1.155-4.729-1.155-7.265c0-2.028,0.258-3.999,0.745-5.879
					c-185.609,1.528-340.155,51.339-340.155,51.339c-144.171,53.331-85.089,87.357-32.334,103.702L175.003,1964.521z"/>
			</g>
		</g>
		<path style="fill:#FFFFFF;" d="M583.794,1820.569c0,10.817-8.768,19.584-19.585,19.584c-10.812,0-19.582-8.767-19.582-19.584
			c0-10.813,8.77-19.584,19.582-19.584C575.027,1800.985,583.794,1809.756,583.794,1820.569"/>
		<path style="fill:#FFFFFF;" d="M169.734,1970.045"/>
	</g>
	<polygon style="fill:#2C2C2C;" points="1380.875,2466.868 1053.207,2771.079 1701.884,2771.079 	"/>
	<path style="fill:#FFFFFF;" d="M1411.536,2724.686c0,0-52.964,31.661-81.425,7.259c0,0,17.678-2.406,22.223-8.05
		c0,0,7.896-6.681-2.155-5.892c0,0-12.401,4.544-14.062-6.453c0,0-2.652-9.63,10.479-5.641c0,0,10.012,6.992,10.746-2.407
		c0,0,0.964-11.556-7.393-15.833c0,0-16.949-6.162-23.42,8.321c0,0-1.157,4.023,1.192,9.108c0,0,4.086,17.181-3.62,23.363
		c0,0-6.395,9.359-15.483,4.562c0,0-7.897-4.562,4.584-12.596c0,0,10.899-4.854,7.356-12.113c0,0-3.311-4.543-12.175,3.485
		c0,0-11.437,7.011-20.526,2.948c0,0-7.396-4.547-7.666-9.109c0,0-2.154-6.436,11.711-1.867c0,0,10.785,4.543,16.481-3.237
		l10.555-11.517c0,0,3.587-6.202-3.388-3.486c0,0-7.896,7.76-13.367,7.24c0,0-9.781,1.888-5.007-9.956c0,0,4.044-7.741,17.411-7.223
		l32.008-1.887c0,0-1.426-14.173-7.165-16.351c0,0-5.468-5.104-18.411,6.952c0,0-8.59,10.229-26.691,13.152
		c0,0-15.099,5.144-16.986,1.638c0,0-2.851-5.082,9.553-6.99c0,0,9.089-2.389,10.053-4.293c0,0,4.778-2.43-1.193-3.507
		c0,0-6.974,2.716-15.293-8.05c0,0-8.59-10.208,3.547-6.972c0,0,12.438,4.332,14.132,5.911c0,0,8.318,3.487,13.831,0
		c0,0,5.007-1.348-2.389-3.234c0,0-7.398,0.289-15.254-11.787c0,0-8.629-12.614-6.471-16.367c0,0,1.927-10.48,10.979,0
		c0,0,7.162,7.259,11.242,17.448c0,0,5.01,6.99,19.568,7.239c0,0,10.285-1.886,3.122-5.103c0,0-16.023-10.979-19.877-30.314
		c0,0-3.774-15.87,6.705-6.682c0,0,5.506,5.354,4.315,13.943c0,0,1.924,4.562,13.133,8.3c0,0,8.628,0.539,7.433,12.883
		c0,0-0.733,9.357,6.894,13.176c0,0,5.741,3.177,10.014-9.707c0,0,6.202-12.075-1.424-19.838c0,0-4.545-7.492-13.096-12.864
		c0,0-8.125-6.974-11.017-8.897c-2.849-1.851-2.849-2.678-9.551-3.449c0,0-7.897-2.734,0.231-9.357c0,0,6.936-6.221,14.831,2.117
		c0,0,10.974,11.556,12.863,11.788c0,0,5.276,2.946,7.896,1.906c0,0-2.889-5.683,10.286-16.409l11.206-19.298
		c0,0,10.516,1.887,4.042,14.772c0,0-4.732,7.24-8.355,9.109c0,0,6.472,0,10.052-2.407c0,0,18.645-6.451,9.092,9.107
		c0,0-2.193,4.296-15.064,3.737c0,0-5.97-1.06-12.862,10.729c0,0-1.462,4.852,4.005,8.07c0,0,3.621-11.519,20.801-6.435
		c0,0,15.253,5.122,20.802-2.407c0,0,7.854-5.376,3.813,6.453c0,0-6.474,13.132-24.386,6.142c0,0-9.78-7.761-17.178,4.258
		c0,0,0.926,15.097-5.508,19.874c0,0-8.125,9.148-9.782,15.579c0,0-2.158,9.671,2.155,16.891c0,0,4.508,8.86,7.86-5.623
		c0,0-1.658-26.847,11.707-31.93c0,0,13.136-6.435,23.65-6.435c0,0,9.32,0,15.755-17.68c0,0-1.196-11.304,5.507-14.211
		c0,0,15.717-2.178,4.277,13.941c0,0-6.163,8.552-7.857,12.865c0,0-3.123,8.588,6.198,3.488c0,0,8.358-5.104,9.786-12.079
		c0,0,5.237-15.019,22.646-6.411c0,0,7.898,4.004,10.785,11.496c0,0,3.313,9.131-7.665,4.818l-7.857-6.705
		c0,0-4.738-3.735-9.049,5.143c0,0-4.548,14.963-23.883,19.008c0,0-19.836,0.27-24.613-0.789c0,0-20.761,4.025-19.8,24.399
		l16.911,6.703c0,0,4.314,0.562,5.969,3.505c0,0,3.816,3.776,9.593-5.911c0,0,8.089-21.993,32.201-20.627
		c0,0,11.944-0.81,19.838,4.564c0,0,6.933,3.428,6.933-4.044c0,0-1.464-7.531,0.923-10.189c0,0,5.507-9.688,9.553,3.988
		c0,0,4.315,14.772-4.509,19.088c0,0-5.967,5.851-26.037,0.537c0,0-22.686-6.988-30.082,11.227c0,0-6.933,16.679,6.933,11.557
		c0,0,15.255-7.764,23.882-12.058c0,0,10.246-6.432,20.029,4.855c0,0,5.546,4.524,2.16,9.879c0,0-5.009,4.313-8.09-4.295
		c0,0-4.816-7.761-9.588-2.386c0,0-3.547,4.852,4.081,10.994l10.976,13.674c0,0,4.506,11.286-7.163,6.45
		c0,0-18.604-16.657-19.337-17.947c0,0-6.703-7.551-14.33,1.849c0,0-3.347,8.857-16.485,0.539c0,0-11.479-8.357-17.214-13.423
		c0,0-13.598-8.321-25.77,3.484c0,0-10.52,12.075,1.424,23.632C1375.484,2723.106,1376.91,2726.86,1411.536,2724.686z"/>
	<path style="fill:#505050;" d="M926.292,2794.324c0,0,220.36,33.663,492.294-16.83c271.974-50.556,293.119-126.955,160.618-163.22
		c0,0,282.565,45.354,19.952,142.497C1599.156,2756.771,1248.262,2869.898,926.292,2794.324z"/>
	<g>
		<path style="fill:#2C2C2C;" d="M1080.322,2862.368c0,3.289-1.117,5.873-3.353,7.726c-2.269,1.884-5.696,2.806-10.396,2.806
			c-5.049,0-8.669-0.998-10.864-3.001c-2.194-2.005-3.311-4.95-3.311-8.884v-23.549h8.703v24.479c0,1.901,0.499,3.329,1.428,4.272
			c0.961,0.965,2.618,1.422,4.928,1.422c2.195,0,3.815-0.416,4.853-1.269c1.042-0.846,1.581-2.368,1.581-4.564v-24.341h6.431
			V2862.368z"/>
		<path style="fill:#2C2C2C;" d="M1105.975,2872.499h-2.579l-13.444-15.312v15.312h-4.312v-24.346h3.236l12.824,14.365v-14.365
			h4.275V2872.499z"/>
		<path style="fill:#2C2C2C;" d="M1117.956,2872.499h-6.047v-24.346h6.047V2872.499z"/>
		<path style="fill:#2C2C2C;" d="M1144.183,2848.153l-9.048,24.346h-5.122l-8.821-24.346h6.546l5.741,16.815l5.775-16.815H1144.183z
			"/>
		<path style="fill:#2C2C2C;" d="M1163.482,2872.499h-17.063v-24.346h16.33v3.603h-10.28v6.546h8.01v3.661h-8.01v6.933h11.014
			V2872.499z"/>
		<path style="fill:#2C2C2C;" d="M1185.553,2872.499h-5.971c-0.04-3.931-0.463-6.743-1.231-8.419
			c-0.772-1.675-2.005-2.523-3.698-2.523h-1.425v10.942h-6.045v-24.346h10.59c2.58,0,4.39,0.502,5.471,1.521
			c1.077,1.02,1.615,2.253,1.615,3.719v1.325c0,1.388-0.463,2.489-1.426,3.336c-0.923,0.847-2.349,1.345-4.196,1.5
			c2.079,0.541,3.659,1.829,4.737,3.776C1185.015,2865.314,1185.553,2868.355,1185.553,2872.499z M1178.89,2855.183v-0.653
			c0-1.061-0.309-1.832-0.924-2.273c-0.617-0.464-1.541-0.673-2.737-0.673h-2.001v6.472h1.654c1.429,0,2.467-0.253,3.084-0.717
			C1178.582,2856.856,1178.89,2856.146,1178.89,2855.183z"/>
		<path style="fill:#2C2C2C;" d="M1206.314,2865.255c0,2.603-0.963,4.506-2.85,5.74c-1.889,1.231-4.547,1.847-7.936,1.847
			c-1.924,0-3.58-0.096-4.892-0.325c-1.347-0.195-2.425-0.442-3.313-0.772v-4.197c0.694,0.386,1.771,0.733,3.198,1.061
			c1.465,0.304,2.89,0.481,4.274,0.481c1.965,0,3.313-0.252,4.045-0.716c0.733-0.479,1.117-1.271,1.117-2.367
			c0-0.691-0.269-1.347-0.81-1.886c-0.537-0.538-2.04-1.271-4.544-2.198c-2.004-0.71-3.545-1.634-4.623-2.772
			c-1.117-1.154-1.654-2.694-1.654-4.643c0-1.887,0.885-3.464,2.658-4.755c1.771-1.29,4.195-1.944,7.316-1.944
			c1.502,0,2.849,0.114,4.086,0.346c1.191,0.211,2.039,0.424,2.539,0.6v3.657c-1.038-0.229-2.08-0.424-3.082-0.577
			c-0.999-0.174-2.08-0.25-3.233-0.25c-1.581,0-2.772,0.209-3.466,0.673c-0.734,0.462-1.078,1.018-1.078,1.714
			c0,0.847,0.269,1.501,0.809,1.948c0.538,0.438,2.114,1.095,4.698,1.942c2.425,0.806,4.16,1.811,5.163,3.041
			C1205.777,2862.134,1206.314,2863.582,1206.314,2865.255z"/>
		<path style="fill:#2C2C2C;" d="M1217.099,2872.499h-6.047v-24.346h6.047V2872.499z"/>
		<path style="fill:#2C2C2C;" d="M1238.821,2851.756h-5.812v20.743h-6.049v-20.743h-6.007v-3.603h17.868V2851.756z"/>
		<path style="fill:#2C2C2C;" d="M1248.683,2872.499h-6.047v-24.346h6.047V2872.499z"/>
		<path style="fill:#2C2C2C;" d="M1306.154,2872.499h-7.896v-20.108l-11.942,20.108h-4.469l-11.133-20.108v20.108h-6.006v-35.033
			h6.47l14.56,25.558l14.789-25.558h5.627V2872.499z"/>
		<path style="fill:#2C2C2C;" d="M1333.733,2872.499h-6.205l-1.962-5.84h-8.938l-2.041,5.84h-4.892l9.053-24.346h5.661
			L1333.733,2872.499z M1324.255,2863.137l-3.312-8.956l-3.159,8.956H1324.255z"/>
		<path style="fill:#2C2C2C;" d="M1352.451,2872.499h-16.023v-24.346h6.047v20.742h9.977V2872.499z"/>
		<path style="fill:#2C2C2C;" d="M1377.947,2872.499h-6.2l-1.962-5.84h-8.938l-2.041,5.84h-4.894l9.055-24.346h5.661
			L1377.947,2872.499z M1368.513,2863.137l-3.352-8.956l-3.122,8.956H1368.513z"/>
		<path style="fill:#2C2C2C;" d="M1401.871,2848.153l-8.9,14.042v10.304h-6.006v-9.766l-9.133-14.58h7.05l5.932,9.764l6.28-9.764
			H1401.871z"/>
		<path style="fill:#2C2C2C;" d="M1421.088,2865.255c0,2.603-0.925,4.506-2.813,5.74c-1.926,1.231-4.545,1.847-7.932,1.847
			c-1.928,0-3.582-0.096-4.893-0.325c-1.348-0.195-2.426-0.442-3.312-0.751v-4.219c0.693,0.386,1.771,0.733,3.199,1.061
			c1.461,0.304,2.848,0.481,4.274,0.481c1.965,0,3.312-0.252,4.046-0.716c0.73-0.479,1.114-1.271,1.114-2.367
			c0-0.691-0.269-1.33-0.807-1.886c-0.54-0.538-2.045-1.271-4.585-2.198c-1.965-0.71-3.506-1.634-4.584-2.772
			c-1.117-1.154-1.656-2.694-1.656-4.643c0-1.887,0.884-3.464,2.659-4.755c1.77-1.29,4.195-1.944,7.318-1.944
			c1.501,0,2.849,0.114,4.08,0.346c1.195,0.211,2.044,0.424,2.542,0.6v3.657c-1.04-0.229-2.039-0.424-3.08-0.577
			c-1.005-0.174-2.041-0.25-3.198-0.25c-1.616,0-2.81,0.209-3.502,0.673c-0.733,0.462-1.081,1.018-1.081,1.714
			c0,0.847,0.268,1.501,0.812,1.948c0.538,0.438,2.075,1.093,4.698,1.96c2.424,0.788,4.159,1.793,5.158,3.023
			C1420.588,2862.134,1421.088,2863.582,1421.088,2865.255z"/>
		<path style="fill:#2C2C2C;" d="M1431.912,2872.499h-6.046v-24.346h6.046V2872.499z"/>
		<path style="fill:#2C2C2C;" d="M1459.684,2872.499h-6.203l-1.963-5.84h-8.938l-2.04,5.84h-4.93l9.091-24.346h5.621
			L1459.684,2872.499z M1450.208,2863.137l-3.312-8.956l-3.156,8.956H1450.208z"/>
		<path style="fill:#2C2C2C;" d="M1494.849,2842.726h-8.397v29.773h-8.705v-29.773h-8.624v-5.26h25.727V2842.726z"/>
		<path style="fill:#2C2C2C;" d="M1514.762,2872.499h-17.061v-24.346h16.332v3.603h-10.286v6.546h8.013v3.661h-8.013v6.933h11.015
			V2872.499z"/>
		<path style="fill:#2C2C2C;" d="M1536.875,2872.499h-6.011c-0.074-3.931-0.46-6.727-1.232-8.419
			c-0.769-1.675-2.004-2.523-3.696-2.523h-1.427v10.942h-6.01v-24.346h10.554c2.586,0,4.43,0.502,5.472,1.521
			c1.079,1.02,1.618,2.253,1.618,3.719v1.325c0,1.388-0.463,2.485-1.387,3.336c-0.964,0.847-2.39,1.345-4.277,1.5
			c2.156,0.541,3.738,1.829,4.776,3.776C1536.294,2865.314,1536.875,2868.355,1536.875,2872.499z M1530.17,2855.183v-0.653
			c0-1.061-0.308-1.832-0.923-2.273c-0.659-0.464-1.543-0.673-2.734-0.673h-2.005v6.472h1.657c1.427,0,2.423-0.253,3.082-0.717
			C1529.863,2856.856,1530.17,2856.146,1530.17,2855.183z"/>
		<path style="fill:#2C2C2C;" d="M1557.824,2872.499h-17.059v-24.346h16.329v3.603h-10.283v6.546h8.011v3.661h-8.011v6.933h11.013
			V2872.499z"/>
		<path style="fill:#2C2C2C;" d="M1581.513,2872.499h-2.579l-13.442-15.312v15.312h-4.275v-24.346h3.196l12.823,14.365v-14.365
			h4.277V2872.499z"/>
		<path style="fill:#2C2C2C;" d="M1606.511,2868.837c-0.849,1.193-2.078,2.138-3.66,2.907c-1.578,0.772-3.655,1.155-6.236,1.155
			c-3.504,0-6.278-1.02-8.319-3.061c-2.005-2.039-3.049-5.028-3.049-8.913v-1.332c0-3.468,1.159-6.296,3.356-8.491
			c2.271-2.198,5.39-3.295,9.435-3.295c1.467,0,2.774,0.134,3.815,0.384c0.998,0.271,1.771,0.502,2.271,0.752v3.907
			c-0.615-0.248-1.388-0.538-2.352-0.825c-0.923-0.308-1.997-0.442-3.195-0.442c-2.195,0-3.925,0.656-5.236,2.002
			c-1.308,1.328-1.968,3.562-1.968,6.664v0.345c0,3.235,0.504,5.471,1.506,6.724c1,1.251,2.425,1.869,4.236,1.869
			c1.004,0,1.887-0.16,2.696-0.445c0.81-0.329,1.348-0.677,1.579-1.059v-4.97h-4.086v-3.274h9.207V2868.837z"/>
		<path style="fill:#2C2C2C;" d="M1630.699,2868.837c-0.842,1.193-2.039,2.138-3.617,2.907c-1.619,0.772-3.699,1.155-6.24,1.155
			c-3.505,0-6.319-1.02-8.32-3.061c-2.039-2.039-3.041-5.028-3.041-8.913v-1.332c0-3.468,1.116-6.296,3.35-8.491
			c2.231-2.198,5.393-3.295,9.399-3.295c1.501,0,2.809,0.134,3.851,0.384c1.002,0.271,1.773,0.502,2.271,0.752v3.907
			c-0.654-0.248-1.388-0.538-2.351-0.825c-0.923-0.308-1.998-0.442-3.231-0.442c-2.161,0-3.891,0.656-5.238,2.002
			c-1.312,1.328-1.966,3.562-1.966,6.664v0.345c0,3.235,0.499,5.471,1.542,6.724c0.998,1.251,2.425,1.869,4.234,1.869
			c0.964,0,1.851-0.16,2.699-0.445c0.768-0.329,1.307-0.677,1.576-1.059v-4.97h-4.121v-3.274h9.203V2868.837z"/>
		<path style="fill:#2C2C2C;" d="M1656.318,2872.499h-6.207l-1.96-5.84h-8.938l-2.04,5.84h-4.893l9.054-24.346h5.661
			L1656.318,2872.499z M1646.879,2863.137l-3.35-8.956l-3.16,8.956H1646.879z"/>
		<path style="fill:#2C2C2C;" d="M1679.003,2872.499h-2.58l-13.442-15.312v15.312h-4.314v-24.346h3.233l12.828,14.365v-14.365h4.275
			V2872.499z"/>
		<path style="fill:#2C2C2C;" d="M1703.154,2865.469c0,2.292-0.809,4.079-2.348,5.391c-1.583,1.292-3.971,1.944-7.244,1.944
			c-3.545,0-6.045-0.692-7.586-2.08c-1.506-1.386-2.276-3.467-2.276-6.201v-16.369h6.052v17.062c0,1.331,0.307,2.311,0.963,2.985
			c0.654,0.654,1.806,0.985,3.426,0.985c1.543,0,2.66-0.291,3.389-0.887c0.733-0.6,1.117-1.656,1.117-3.178v-16.969h4.508V2865.469z
			"/>
	</g>
	<path style="fill:#C6191F;" d="M1036.308,2664.419"/>
	<path style="fill:#969696;" d="M1116.081,2712.713c-66.821-19.181-153.703-61.984,31.997-130.677
		c0,0,350.893-113.108,672.864-37.556c0,0-220.361-33.665-492.296,16.813c-234.213,43.561-282.405,106.244-206.721,145.984"/>
	<path style="fill:#A8A8A8;" d="M1620.427,2525.444c0,13.38-10.848,24.226-24.229,24.226c-13.378,0-24.227-10.846-24.227-24.226
		c0-13.381,10.849-24.229,24.227-24.229C1609.58,2501.216,1620.427,2512.063,1620.427,2525.444"/>
	<g>
		<path d="M265.848,1666.268c0,15.254-5.671,27.199-17.021,35.826c-11.354,8.631-28.934,12.939-52.767,12.939
			c-25.556,0-43.929-4.615-55.11-13.855c-11.172-9.232-16.765-22.949-16.765-41.139v-109.025h44.189v113.436
			c0,8.801,2.409,15.408,7.214,19.812c4.813,4.404,13.15,6.605,25.023,6.605c11,0,19.167-1.967,24.5-5.908
			c5.325-3.934,7.992-10.99,7.992-21.16v-112.785h32.745V1666.268z"/>
		<path d="M648.566,1575.559h-42.634v140.068h-44.188v-140.068h-43.67v-24.545h130.492V1575.559z"/>
		<polygon style="fill-rule:evenodd;clip-rule:evenodd;" points="397.266,1667.605 396.516,1666.105 391.303,1673.272 
			396.182,1673.723 		"/>
	</g>
	<polygon style="fill:#FFFFFF;" points="1637.461,2132.775 1564.347,2250.039 1564.347,2250.039 1561.912,2254.072 
		1487.741,2132.775 1456.222,2132.775 1456.222,2297.389 1486.759,2297.389 1486.759,2202.92 1543.041,2297.389 1565.914,2297.389 
		1626.086,2202.92 1626.086,2297.389 1666.51,2297.389 1666.51,2132.775 	"/>
	<g>
		<polygon style="fill:#FFFFFF;" points="1561.872,2254.005 1561.749,2253.805 1561.873,2254.009 		"/>
		<polygon style="fill:#FFFFFF;" points="1600.889,2183.879 1570.475,2132.834 1536.03,2132.834 1584.223,2210.521 		"/>
		<polygon style="fill:#FFFFFF;" points="1625.52,2144.505 1618.388,2132.834 1583.091,2132.834 1607.08,2173.982 		"/>
		<polygon style="fill:#FFFFFF;" points="1577.375,2221.468 1523.227,2132.834 1492.551,2132.834 1561.888,2246.224 		"/>
		<polygon style="fill:#FFFFFF;" points="1609.463,2178.071 1610.184,2179.307 1628.497,2149.377 1627.973,2148.521 		"/>
		<polygon style="fill:#FFFFFF;" points="1586.669,2214.465 1587.51,2215.82 1603.917,2188.959 1603.296,2187.918 		"/>
		<polygon style="fill:#FFFFFF;" points="1562.596,2252.897 1561.895,2254.044 1561.887,2254.03 1561.886,2254.031 
			1562.774,2255.484 1580.657,2226.84 1579.798,2225.435 		"/>
	</g>
	<polygon style="fill-rule:evenodd;clip-rule:evenodd;" points="1593.807,1551.072 1629.104,1551.072 1639.212,1567.615 
		1620.9,1597.545 	"/>
	<polygon style="fill-rule:evenodd;clip-rule:evenodd;" points="1546.746,1551.072 1581.191,1551.072 1614.632,1607.197 
		1598.226,1634.059 	"/>
	<polygon style="fill-rule:evenodd;clip-rule:evenodd;" points="1533.943,1551.072 1503.267,1551.072 1575,1668.379 
		1572.611,1672.282 1572.464,1672.043 1573.49,1673.723 1591.373,1645.078 	"/>
	<polygon points="1648.177,1551.014 1575.063,1668.277 1575.063,1668.277 1572.627,1672.311 1498.458,1551.014 1466.938,1551.014 
		1466.938,1715.627 1497.475,1715.627 1497.475,1621.158 1553.756,1715.627 1576.629,1715.627 1636.802,1621.158 1636.802,1715.627 
		1677.226,1715.627 1677.226,1551.014 	"/>
	<polygon style="fill:#FFFFFF;" points="1572.601,1672.271 1570.437,1667.927 1644.022,1550.296 1648.592,1550.947 	"/>
	<g>
		<polygon style="fill-rule:evenodd;clip-rule:evenodd;" points="369.736,1551.131 334.438,1551.131 324.33,1567.673 
			342.643,1597.604 		"/>
		<polygon style="fill-rule:evenodd;clip-rule:evenodd;" points="416.8,1551.131 382.353,1551.131 348.911,1607.257 
			365.318,1634.12 		"/>
		<polygon style="fill-rule:evenodd;clip-rule:evenodd;" points="429.602,1551.131 460.28,1551.131 388.545,1668.441 
			390.934,1672.344 391.08,1672.104 390.054,1673.784 372.171,1645.138 		"/>
		<polygon points="467.521,1551.072 394.405,1668.338 394.405,1668.338 391.969,1672.372 317.798,1551.072 286.278,1551.072 
			286.278,1715.688 316.816,1715.688 316.816,1621.219 373.099,1715.688 395.972,1715.688 456.146,1621.219 456.146,1715.688 
			496.572,1715.688 496.572,1551.072 		"/>
	</g>
	<g>
		<polygon style="fill-rule:evenodd;clip-rule:evenodd;fill:#FFFFFF;" points="371.546,2132.832 336.249,2132.832 326.14,2149.374 
			344.454,2179.305 		"/>
		<polygon style="fill-rule:evenodd;clip-rule:evenodd;fill:#FFFFFF;" points="418.611,2132.832 384.164,2132.832 350.721,2188.958 
			367.128,2215.821 		"/>
		<polygon style="fill-rule:evenodd;clip-rule:evenodd;fill:#FFFFFF;" points="431.413,2132.832 462.09,2132.832 390.356,2250.143 
			392.745,2254.045 392.89,2253.806 391.865,2255.485 373.982,2226.839 		"/>
		<polygon style="fill:#FFFFFF;" points="469.332,2132.773 396.215,2250.039 396.215,2250.039 393.78,2254.073 319.609,2132.773 
			288.088,2132.773 288.088,2297.39 318.626,2297.39 318.626,2202.92 374.91,2297.39 397.783,2297.39 457.957,2202.92 
			457.957,2297.39 498.382,2297.39 498.382,2132.773 		"/>
	</g>
	<polygon style="fill-rule:evenodd;clip-rule:evenodd;" points="1351.357,1191.051 1330.875,1191.051 1325.01,1200.649 
		1335.636,1218.017 	"/>
	<polygon style="fill-rule:evenodd;clip-rule:evenodd;" points="1378.666,1191.051 1358.678,1191.051 1339.273,1223.618 
		1348.793,1239.205 	"/>
	<polygon style="fill-rule:evenodd;clip-rule:evenodd;" points="1386.094,1191.051 1403.895,1191.051 1362.271,1259.12 
		1363.657,1261.385 1363.742,1261.246 1363.147,1262.221 1352.77,1245.599 	"/>
	<polygon points="1408.097,1191.017 1365.671,1259.061 1365.671,1259.061 1364.258,1261.401 1321.22,1191.017 1302.93,1191.017 
		1302.93,1286.536 1320.65,1286.536 1320.65,1231.719 1353.308,1286.536 1366.581,1286.536 1401.497,1231.719 1401.497,1286.536 
		1424.954,1286.536 1424.954,1191.017 	"/>
	<polygon points="1734.346,1673.386 1732.182,1669.041 1805.767,1551.41 1810.337,1552.062 	"/>
	<g>
		<path style="fill:#FFFFFF;" d="M265.848,2248.326c0,15.254-5.671,27.199-17.021,35.826c-11.354,8.631-28.934,12.939-52.767,12.939
			c-25.556,0-43.929-4.615-55.11-13.855c-11.172-9.232-16.765-22.949-16.765-41.139v-109.025h44.189v113.436
			c0,8.801,2.409,15.408,7.214,19.812c4.813,4.404,13.15,6.605,25.023,6.605c11,0,19.167-1.967,24.5-5.908
			c5.325-3.934,7.992-10.99,7.992-21.16v-112.785h32.745V2248.326z"/>
		<path style="fill:#FFFFFF;" d="M648.566,2157.617h-42.634v140.068h-44.188v-140.068h-43.67v-24.545h130.492V2157.617z"/>
		<polygon style="fill:#FFFFFF;" points="469.331,2132.775 396.216,2250.039 396.216,2250.039 393.781,2254.072 319.61,2132.775 
			288.091,2132.775 288.091,2297.389 318.628,2297.389 318.628,2202.92 374.91,2297.389 397.783,2297.389 457.956,2202.92 
			457.956,2297.389 498.379,2297.389 498.379,2132.775 		"/>
	</g>
</g>
<g id="Layer_2">
</g>
<g id="Layer_3">
</g>
<g id="Layer_4">
</g>
<g id="Layer_5">
</g>
</svg>
