<?xml version="1.0" encoding="utf-8"?>
<!-- Generator: Adobe Illustrator 25.0.1, SVG Export Plug-In . SVG Version: 6.00 Build 0)  -->
<svg version="1.1" id="Logo_Mynemoi_xA0_Image_1_" xmlns="http://www.w3.org/2000/svg" xmlns:xlink="http://www.w3.org/1999/xlink"
	 x="0px" y="0px" viewBox="0 0 206.72 206.62" style="enable-background:new 0 0 206.72 206.62;" xml:space="preserve">
<style type="text/css">
	.st0{fill:#778288;}
	.st1{fill:#4678AD;}
	.st2{fill:#FFFFFF;}
	.st3{fill:#3A3A3A;}
	.st4{fill:#4B846A;}
</style>
<g>
	<path class="st3" d="M34.64,145.2V26.66l70.89,50.47l70.46-47.12c-18.66-18.42-44.29-29.8-72.58-29.8
		C46.35,0.21,0.1,46.46,0.1,103.52c0,22.03,6.9,42.44,18.65,59.21C34.05,162.66,34.64,145.2,34.64,145.2z"/>
	<path class="st3" d="M82,170.04v-45.8l71.54,47.71v-94.6l-23.56,15.22v32.34L58.31,77.13c0,0,0.26,65.78,0,82.37
		c-0.2,13.09-15.19,20.47-21.5,23c5.74,4.84,12.01,9.07,18.72,12.59C77.1,192.78,82,170.04,82,170.04z"/>
	<path class="st3" d="M206.72,103.52c0-28.72-11.72-54.69-30.63-73.41v146.83C195,158.21,206.72,132.24,206.72,103.52z"/>
	<path class="st3" d="M176.09,29.94l-0.1,0.07c0.03,0.03,0.07,0.06,0.1,0.1V29.94z"/>
</g>
</svg>
