<?xml version="1.0" encoding="utf-8"?>
<!-- Generator: Adobe Illustrator 25.0.1, SVG Export Plug-In . SVG Version: 6.00 Build 0)  -->
<svg version="1.1" id="Logo_Mynemoi_xA0_Image_1_" xmlns="http://www.w3.org/2000/svg" xmlns:xlink="http://www.w3.org/1999/xlink"
	 x="0px" y="0px" viewBox="0 0 206.7 206.6" style="enable-background:new 0 0 206.7 206.6;" xml:space="preserve">
<style type="text/css">
	.st0{fill:#147682;}
</style>
<g>
	<path class="st0" d="M34.6,145.2V26.7l70.9,50.5L176,30c-18.7-18.4-44.3-29.8-72.6-29.8C46.3,0.2,0.1,46.5,0.1,103.5
		c0,22,6.9,42.4,18.6,59.2C34,162.7,34.6,145.2,34.6,145.2z"/>
	<path class="st0" d="M82,170v-45.8l71.5,47.7V77.3L130,92.6v32.3L58.3,77.1c0,0,0.3,65.8,0,82.4c-0.2,13.1-15.2,20.5-21.5,23
		c5.7,4.8,12,9.1,18.7,12.6C77.1,192.8,82,170,82,170z"/>
	<path class="st0" d="M206.7,103.5c0-28.7-11.7-54.7-30.6-73.4v146.8C195,158.2,206.7,132.2,206.7,103.5z"/>
	<path class="st0" d="M176.1,29.9L176,30c0,0,0.1,0.1,0.1,0.1V29.9z"/>
</g>
</svg>
